<svg xmlns="http://www.w3.org/2000/svg" width="26" height="26" fill="none"><path fill="#3363FF" d="M19.39 23.833a4.333 4.333 0 0 0 0-8.666h-.237l-6.285 6.28c-.263.263-.41.587-.41.958 0 .771.626 1.428 1.397 1.428h5.536zm-5-18.461-1.142 1.143a2.708 2.708 0 0 0-.79 1.907v8.924c0 1.143 0 1.714.34 1.85.34.137.735-.275 1.525-1.1l6.325-6.597a4.379 4.379 0 0 0-6.257-6.127z"/><path fill="#3363FF" fill-rule="evenodd" d="M10.833 6.5v13a4.333 4.333 0 0 1-8.666 0v-13a4.333 4.333 0 0 1 8.666 0zM6.5 20.583a1.083 1.083 0 1 0 0-2.166 1.083 1.083 0 0 0 0 2.166z" clip-rule="evenodd"/></svg>