<svg xmlns="http://www.w3.org/2000/svg" width="20" height="21" fill="none"><path fill="#3363FF" d="M6.667 3.417c0-.69.56-1.25 1.25-1.25h4.166c.69 0 1.25.56 1.25 1.25v.833c0 .69-.56 1.25-1.25 1.25H7.917c-.69 0-1.25-.56-1.25-1.25v-.833z"/><path fill="#3363FF" fill-rule="evenodd" d="M5.417 3.864c-1.049.059-1.71.226-2.185.7C2.5 5.297 2.5 6.475 2.5 8.832v5c0 2.357 0 3.536.732 4.268.732.732 1.911.732 4.268.732h5c2.357 0 3.535 0 4.268-.732.732-.732.732-1.91.732-4.268v-5c0-2.357 0-3.535-.732-4.268-.475-.474-1.136-.641-2.185-.7v.386a2.5 2.5 0 0 1-2.5 2.5H7.917a2.5 2.5 0 0 1-2.5-2.5v-.386zM5.208 9.25c0-.345.28-.625.625-.625h8.334a.625.625 0 0 1 0 1.25H5.833a.625.625 0 0 1-.625-.625zm.834 2.917c0-.345.28-.625.625-.625h6.666a.625.625 0 1 1 0 1.25H6.667a.625.625 0 0 1-.625-.625zm.833 2.917c0-.345.28-.625.625-.625h5a.625.625 0 1 1 0 1.25h-5a.625.625 0 0 1-.625-.625z" clip-rule="evenodd"/></svg>