<svg xmlns="http://www.w3.org/2000/svg" width="20" height="21" fill="none"><path fill="#3363FF" d="M4.583 13.834V7.167a2.5 2.5 0 0 0-2.5-2.5.417.417 0 0 0-.417.417v10.833c0 .23.187.417.417.417a2.5 2.5 0 0 0 2.5-2.5zm5.833-9.167c1.572 0 2.357 0 2.846.488.488.488.488 1.274.488 2.845v5c0 1.572 0 2.357-.488 2.845-.489.489-1.274.489-2.846.489h-.833c-1.571 0-2.357 0-2.845-.489-.488-.488-.488-1.273-.488-2.845V8c0-1.571 0-2.357.488-2.845s1.274-.488 2.845-.488h.833zm5 2.5v6.667a2.5 2.5 0 0 0 2.5 2.5c.23 0 .417-.187.417-.417V5.084a.417.417 0 0 0-.416-.417 2.5 2.5 0 0 0-2.5 2.5z"/></svg>