<svg xmlns="http://www.w3.org/2000/svg" width="24" height="18" fill="none"><path fill="url(#a)" fill-opacity=".5" d="M17.566.266c.004-.14.117-.266.258-.266H22.5c.552 0 1.006.45.94.998-.476 3.948-3.739 7.007-7.696 7.007h-5.667c-.003 0-.006-.001-.006-.005 0-.003.003-.007.006-.007 4.076-.141 7.358-3.517 7.489-7.727z"/><path fill="url(#b)" fill-opacity=".5" d="M10.073 10.009a.007.007 0 0 1-.002-.005c0-.005.004-.009.009-.009h5.664c3.958 0 7.22 3.056 7.696 7.007.066.548-.388.998-.94.998h-4.672c-.14 0-.254-.126-.258-.266-.135-4.207-3.415-7.584-7.492-7.723-.002 0-.004 0-.005-.002z"/><path fill="url(#c)" fill-opacity=".5" d="M7.997.014A.007.007 0 0 1 8 .012c.087 0 .17-.012.252-.012h4.672c.552 0 1.006.45.94.998-.476 3.948-3.739 7.007-7.696 7.007H.502C.5 8.005.496 8.004.496 8c0-.003.003-.007.006-.007C4.659 7.849 7.99 4.34 7.995.018c0-.001 0-.003.002-.004z"/><path fill="url(#d)" fill-opacity=".5" d="M.502 10.009a.007.007 0 0 1-.002-.005c0-.005.004-.009.008-.009h5.664c3.955 0 7.22 3.056 7.697 7.007.066.548-.388.998-.94.998H8.256c-.14 0-.253-.126-.258-.266-.135-4.207-3.414-7.584-7.491-7.723-.002 0-.004 0-.005-.002z"/><defs><linearGradient id="a" x1=".496" x2="23.502" y1="8.998" y2="8.998" gradientUnits="userSpaceOnUse"><stop stop-color="#1A4BFF"/><stop offset="1" stop-color="#1A4BFF" stop-opacity="0"/></linearGradient><linearGradient id="b" x1=".496" x2="23.502" y1="8.998" y2="8.998" gradientUnits="userSpaceOnUse"><stop stop-color="#1A4BFF"/><stop offset="1" stop-color="#1A4BFF" stop-opacity="0"/></linearGradient><linearGradient id="c" x1=".496" x2="23.502" y1="8.998" y2="8.998" gradientUnits="userSpaceOnUse"><stop stop-color="#1A4BFF"/><stop offset="1" stop-color="#1A4BFF" stop-opacity="0"/></linearGradient><linearGradient id="d" x1=".496" x2="23.502" y1="8.998" y2="8.998" gradientUnits="userSpaceOnUse"><stop stop-color="#1A4BFF"/><stop offset="1" stop-color="#1A4BFF" stop-opacity="0"/></linearGradient></defs></svg>