<svg xmlns="http://www.w3.org/2000/svg" width="50" height="50" fill="none"><g clip-path="url(#a)"><path fill="#fff" d="M24.514 25.787c-.53 1.51-1.003 2.847-1.47 4.186-.854 2.447-1.693 4.9-2.575 7.337-.097.264-.42.64-.642.641-3.56.04-7.116.028-10.827.028.38-1.101.718-2.105 1.071-3.103 2.62-7.385 5.249-14.767 7.856-22.157.182-.513.419-.723 1.004-.719 3.977.028 7.957.023 11.935.005.51-.002.788.114.975.63 2.989 8.245 6 16.482 9.006 24.722.059.16.087.332.151.582-.338.017-.622.044-.905.044-3.443.003-6.889-.018-10.332.017-.66.007-.918-.224-1.123-.807-1.235-3.52-2.509-7.024-3.773-10.534-.083-.233-.183-.458-.35-.874v.002zm.098-.104-4.46-12.216-4.32 12.216h8.78z"/></g><defs><clipPath id="a"><path fill="#fff" d="M9 12h32v26H9z"/></clipPath></defs></svg>