<svg xmlns="http://www.w3.org/2000/svg" width="380" height="367" fill="none"><g clip-path="url(#a)"><path stroke="url(#b)" stroke-opacity=".1" d="M4.47-98H-19v24.417M4.47-98v24.417M4.47-98h23.471M4.471-73.583H-19m23.47 0h23.471m-23.47 0v24.416M-19-73.583v24.416M27.941-98v24.417m0-24.417h23.47m-23.47 24.417h23.47m-23.47 0v24.416M51.411-98v24.417m0-24.417h23.471m-23.47 24.417h23.47m-23.47 0v24.416M74.882-98v24.417m0-24.417h23.47m-23.47 24.417h23.47m-23.47 0v24.416M98.352-98v24.417m0-24.417h23.472M98.353-73.583h23.471m-23.471 0v24.416M121.824-98v24.417m0-24.417h23.47m-23.47 24.417h23.47m-23.47 0v24.416M145.294-98v24.417m0-24.417h23.471m-23.471 24.417h23.471m-23.471 0v24.416M168.765-98v24.417m0-24.417h23.47m-23.47 24.417h23.47m-23.47 0v24.416M192.235-98v24.417m0-24.417h23.471m-23.471 24.417h23.471m-23.471 0v24.416M215.706-98v24.417m0-24.417h23.47m-23.47 24.417h23.47m-23.47 0v24.416M239.176-98v24.417m0-24.417h23.471m-23.471 24.417h23.471m-23.471 0v24.416M262.647-98v24.417m0-24.417h23.471m-23.471 24.417h23.471m-23.471 0v24.416M286.118-98v24.417m0-24.417h23.47m-23.47 24.417h23.47m-23.47 0v24.416M309.588-98v24.417m0-24.417h23.471m-23.471 24.417h23.471m-23.471 0v24.416M333.059-98v24.417m0-24.417h23.47m-23.47 24.417h23.47m-23.47 0v24.416M356.529-98v24.417m0-24.417H380v24.417m-23.471 0H380m-23.471 0v24.416M380-73.583v24.416m-375.53 0H-19m23.47 0h23.471m-23.47 0v24.417M-19-49.167v24.417m46.941-24.417h23.47m-23.47 0v24.417m23.47-24.417h23.471m-23.47 0v24.417m23.47-24.417h23.47m-23.47 0v24.417m23.47-24.417h23.472m-23.471 0v24.417m23.471-24.417h23.47m-23.47 0v24.417m23.47-24.417h23.471m-23.471 0v24.417m23.471-24.417h23.47m-23.47 0v24.417m23.47-24.417h23.471m-23.471 0v24.417m23.471-24.417h23.47m-23.47 0v24.417m23.47-24.417h23.471m-23.471 0v24.417m23.471-24.417h23.471m-23.471 0v24.417m23.471-24.417h23.47m-23.47 0v24.417m23.47-24.417h23.471m-23.471 0v24.417m23.471-24.417h23.47m-23.47 0v24.417m23.47-24.417H380m-23.471 0v24.417M380-49.167v24.417m-375.53 0H-19m23.47 0h23.471m-23.47 0V-.333M-19-24.75V-.333M27.941-24.75h23.47m-23.47 0V-.333m23.47-24.417h23.471m-23.47 0V-.333m23.47-24.417h23.47m-23.47 0V-.333m23.47-24.417h23.472m-23.471 0V-.333m23.471-24.417h23.47m-23.47 0V-.333m23.47-24.417h23.471m-23.471 0V-.333m23.471-24.417h23.47m-23.47 0V-.333m23.47-24.417h23.471m-23.471 0V-.333m23.471-24.417h23.47m-23.47 0V-.333m23.47-24.417h23.471m-23.471 0V-.333m23.471-24.417h23.471m-23.471 0V-.333m23.471-24.417h23.47m-23.47 0V-.333m23.47-24.417h23.471m-23.471 0V-.333m23.471-24.417h23.47m-23.47 0V-.333m23.47-24.417H380m-23.471 0V-.333M380-24.75V-.333m-375.53 0H-19m23.47 0h23.471m-23.47 0v24.416M-19-.333v24.416M27.941-.333h23.47m-23.47 0v24.416M51.411-.333h23.471m-23.47 0v24.416M74.882-.333h23.47m-23.47 0v24.416M98.352-.333h23.472m-23.471 0v24.416M121.824-.333h23.47m-23.47 0v24.416m23.47-24.416h23.471m-23.471 0v24.416M168.765-.333h23.47m-23.47 0v24.416m23.47-24.416h23.471m-23.471 0v24.416M215.706-.333h23.47m-23.47 0v24.416m23.47-24.416h23.471m-23.471 0v24.416M262.647-.333h23.471m-23.471 0v24.416M286.118-.333h23.47m-23.47 0v24.416m23.47-24.416h23.471m-23.471 0v24.416M333.059-.333h23.47m-23.47 0v24.416m23.47-24.416H380m-23.471 0v24.416M380-.333v24.416m-375.53 0H-19m23.47 0h23.471m-23.47 0V48.5M-19 24.083V48.5m46.941-24.417h23.47m-23.47 0V48.5m23.47-24.417h23.471m-23.47 0V48.5m23.47-24.417h23.47m-23.47 0V48.5m23.47-24.417h23.472m-23.471 0V48.5m23.471-24.417h23.47m-23.47 0V48.5m23.47-24.417h23.471m-23.471 0V48.5m23.471-24.417h23.47m-23.47 0V48.5m23.47-24.417h23.471m-23.471 0V48.5m23.471-24.417h23.47m-23.47 0V48.5m23.47-24.417h23.471m-23.471 0V48.5m23.471-24.417h23.471m-23.471 0V48.5m23.471-24.417h23.47m-23.47 0V48.5m23.47-24.417h23.471m-23.471 0V48.5m23.471-24.417h23.47m-23.47 0V48.5m23.47-24.417H380m-23.471 0V48.5M380 24.083V48.5m-375.53 0H-19m23.47 0h23.471m-23.47 0v24.417M-19 48.5v24.417M27.941 48.5h23.47m-23.47 0v24.417M51.411 48.5h23.471m-23.47 0v24.417M74.882 48.5h23.47m-23.47 0v24.417M98.352 48.5h23.472m-23.471 0v24.417M121.824 48.5h23.47m-23.47 0v24.417m23.47-24.417h23.471m-23.471 0v24.417M168.765 48.5h23.47m-23.47 0v24.417m23.47-24.417h23.471m-23.471 0v24.417M215.706 48.5h23.47m-23.47 0v24.417m23.47-24.417h23.471m-23.471 0v24.417M262.647 48.5h23.471m-23.471 0v24.417M286.118 48.5h23.47m-23.47 0v24.417m23.47-24.417h23.471m-23.471 0v24.417M333.059 48.5h23.47m-23.47 0v24.417m23.47-24.417H380m-23.471 0v24.417M380 48.5v24.417m-375.53 0H-19m23.47 0h23.471m-23.47 0v24.416M-19 72.917v24.416m46.941-24.416h23.47m-23.47 0v24.416m23.47-24.416h23.471m-23.47 0v24.416m23.47-24.416h23.47m-23.47 0v24.416m23.47-24.416h23.472m-23.471 0v24.416m23.471-24.416h23.47m-23.47 0v24.416m23.47-24.416h23.471m-23.471 0v24.416m23.471-24.416h23.47m-23.47 0v24.416m23.47-24.416h23.471m-23.471 0v24.416m23.471-24.416h23.47m-23.47 0v24.416m23.47-24.416h23.471m-23.471 0v24.416m23.471-24.416h23.471m-23.471 0v24.416m23.471-24.416h23.47m-23.47 0v24.416m23.47-24.416h23.471m-23.471 0v24.416m23.471-24.416h23.47m-23.47 0v24.416m23.47-24.416H380m-23.471 0v24.416M380 72.917v24.416m-375.53 0H-19m23.47 0h23.471m-23.47 0v24.417M-19 97.333v24.417m46.941-24.417h23.47m-23.47 0v24.417m23.47-24.417h23.471m-23.47 0v24.417m23.47-24.417h23.47m-23.47 0v24.417m23.47-24.417h23.472m-23.471 0v24.417m23.471-24.417h23.47m-23.47 0v24.417m23.47-24.417h23.471m-23.471 0v24.417m23.471-24.417h23.47m-23.47 0v24.417m23.47-24.417h23.471m-23.471 0v24.417m23.471-24.417h23.47m-23.47 0v24.417m23.47-24.417h23.471m-23.471 0v24.417m23.471-24.417h23.471m-23.471 0v24.417m23.471-24.417h23.47m-23.47 0v24.417m23.47-24.417h23.471m-23.471 0v24.417m23.471-24.417h23.47m-23.47 0v24.417m23.47-24.417H380m-23.471 0v24.417M380 97.333v24.417m-375.53 0H-19m23.47 0h23.471m-23.47 0v24.417M-19 121.75v24.417m46.941-24.417h23.47m-23.47 0v24.417m23.47-24.417h23.471m-23.47 0v24.417m23.47-24.417h23.47m-23.47 0v24.417m23.47-24.417h23.472m-23.471 0v24.417m23.471-24.417h23.47m-23.47 0v24.417m23.47-24.417h23.471m-23.471 0v24.417m23.471-24.417h23.47m-23.47 0v24.417m23.47-24.417h23.471m-23.471 0v24.417m23.471-24.417h23.47m-23.47 0v24.417m23.47-24.417h23.471m-23.471 0v24.417m23.471-24.417h23.471m-23.471 0v24.417m23.471-24.417h23.47m-23.47 0v24.417m23.47-24.417h23.471m-23.471 0v24.417m23.471-24.417h23.47m-23.47 0v24.417m23.47-24.417H380m-23.471 0v24.417M380 121.75v24.417m-375.53 0H-19m23.47 0h23.471m-23.47 0v24.416M-19 146.167v24.416m46.941-24.416h23.47m-23.47 0v24.416m23.47-24.416h23.471m-23.47 0v24.416m23.47-24.416h23.47m-23.47 0v24.416m23.47-24.416h23.472m-23.471 0v24.416m23.471-24.416h23.47m-23.47 0v24.416m23.47-24.416h23.471m-23.471 0v24.416m23.471-24.416h23.47m-23.47 0v24.416m23.47-24.416h23.471m-23.471 0v24.416m23.471-24.416h23.47m-23.47 0v24.416m23.47-24.416h23.471m-23.471 0v24.416m23.471-24.416h23.471m-23.471 0v24.416m23.471-24.416h23.47m-23.47 0v24.416m23.47-24.416h23.471m-23.471 0v24.416m23.471-24.416h23.47m-23.47 0v24.416m23.47-24.416H380m-23.471 0v24.416M380 146.167v24.416m-375.53 0H-19m23.47 0h23.471m-23.47 0V195M-19 170.583V195H4.47m23.471-24.417h23.47m-23.47 0V195m23.47-24.417h23.471m-23.47 0V195m23.47-24.417h23.47m-23.47 0V195m23.47-24.417h23.472m-23.471 0V195m23.471-24.417h23.47m-23.47 0V195m23.47-24.417h23.471m-23.471 0V195m23.471-24.417h23.47m-23.47 0V195m23.47-24.417h23.471m-23.471 0V195m23.471-24.417h23.47m-23.47 0V195m23.47-24.417h23.471m-23.471 0V195m23.471-24.417h23.471m-23.471 0V195m23.471-24.417h23.47m-23.47 0V195m23.47-24.417h23.471m-23.471 0V195m23.471-24.417h23.47m-23.47 0V195m23.47-24.417H380m-23.471 0V195M380 170.583V195h-23.471M4.471 195h23.47m0 0h23.47m0 0h23.471m0 0h23.47m0 0h23.472m0 0h23.47m0 0h23.471m0 0h23.47m0 0h23.471m0 0h23.47m0 0h23.471m0 0h23.471m0 0h23.47m0 0h23.471m0 0h23.47"/><path fill="url(#c)" fill-opacity=".12" d="M-42.529 212.163a98.51 98.51 0 0 0-28.734 32.865l-2.007 3.718a93.8 93.8 0 0 0-.697 87.801C-50.085 382.518 35.306 552.16 81.277 528.278L443.36 340.175c34.163-17.747 18.706-211.565.958-245.728l-23.866-45.94c-12.779-24.599-46.926-27.27-63.377-4.96a37.445 37.445 0 0 1-19.992 13.825l-21.195 5.968a61.435 61.435 0 0 0-39.964 35.281l-3.096 7.347c-9.945 23.603-35.572 36.475-60.444 30.361-22.675-5.574-46.29 4.622-57.784 24.948l-2.845 5.033a59.722 59.722 0 0 1-44.577 29.865l-22.853 2.858a105.537 105.537 0 0 1-30.677-.658L31.84 194.69a98.51 98.51 0 0 0-74.368 17.473Z"/><path stroke="url(#d)" stroke-opacity=".3" d="m152.189 166.556-.435-.246.435.246 2.846-5.033c11.383-20.131 34.771-30.229 57.229-24.708 25.111 6.173 50.984-6.823 61.024-30.652l3.096-7.347a60.935 60.935 0 0 1 39.638-34.994l21.196-5.969a37.95 37.95 0 0 0 20.259-14.009c16.231-22.013 49.922-19.377 62.531 4.894l23.865 45.94c2.19 4.214 4.361 10.93 6.413 19.525 2.05 8.585 3.974 19.012 5.678 30.629 3.408 23.232 5.935 51.198 6.841 78.651.906 27.458.189 54.384-2.883 75.542-1.536 10.581-3.658 19.699-6.45 26.712-2.799 7.031-6.236 11.861-10.343 13.995L81.047 527.834c-5.593 2.906-11.805 2.885-18.49.477-6.697-2.412-13.841-7.213-21.24-13.824-14.794-13.221-30.496-33.581-45.53-56.157-27.704-41.606-53.068-90.629-66.225-116.057a4200.21 4200.21 0 0 0-3.086-5.957 93.299 93.299 0 0 1 .694-87.332l2.007-3.718a98.012 98.012 0 0 1 102.578-50.083l21.809 3.685.083-.493-.083.493a106.077 106.077 0 0 0 30.822.662l22.853-2.858a60.226 60.226 0 0 0 44.95-30.116Z"/><g style="mix-blend-mode:plus-lighter"><mask id="f" width="549" height="503" x="-85" y="28" maskUnits="userSpaceOnUse" style="mask-type:alpha"><path fill="url(#e)" fill-opacity=".5" d="M-42.529 212.163a98.513 98.513 0 0 0-28.734 32.866l-2.007 3.718a93.799 93.799 0 0 0-.697 87.8C-50.085 382.518 35.306 552.16 81.277 528.278L443.36 340.176c34.163-17.748 18.706-211.566.958-245.728l-23.866-45.94c-12.779-24.6-46.926-27.272-63.377-4.96a37.446 37.446 0 0 1-19.992 13.825l-21.195 5.968a61.435 61.435 0 0 0-39.964 35.28l-3.096 7.348c-9.945 23.603-35.572 36.475-60.444 30.361-22.675-5.575-46.29 4.621-57.784 24.947l-2.845 5.033a59.723 59.723 0 0 1-44.577 29.866l-22.853 2.858a105.572 105.572 0 0 1-30.677-.659L31.84 194.69a98.514 98.514 0 0 0-74.368 17.473Z"/></mask><g mask="url(#f)"><path fill="url(#g)" fill-opacity=".5" fill-rule="evenodd" d="m365.707 389.707 402-402L767-13 365 389l.707.707Zm-6 0 402-402L761-13 359 389l.707.707Zm396-402-402 402L353 389 755-13l.707.707Zm-408 402 402-402L749-13 347 389l.707.707Zm396-402-402 402L341 389 743-13l.707.707Zm-408 402 402-402L737-13 335 389l.707.707Zm396-402-402 402L329 389 731-13l.707.707Zm-408 402 402-402L725-13 323 389l.707.707Zm396-402-402 402L317 389 719-13l.707.707Zm-408 402 402-402L713-13 311 389l.707.707Zm396-402-402 402L305 389 707-13l.707.707Zm-408 402 402-402L701-13 299 389l.707.707Zm396-402-402 402L293 389 695-13l.707.707Zm-408 402 402-402L689-13 287 389l.707.707Zm396-402-402 402L281 389 683-13l.707.707Zm-408 402 402-402L677-13 275 389l.707.707Zm396-402-402 402L269 389 671-13l.707.707Zm-408 402 402-402L665-13 263 389l.707.707Zm396-402-402 402L257 389 659-13l.707.707Zm-408 402 402-402L653-13 251 389l.707.707Zm396-402-402 402L245 389 647-13l.707.707Zm-408 402 402-402L641-13 239 389l.707.707Zm396-402-402 402L233 389 635-13l.707.707Zm-408 402 402-402L629-13 227 389l.707.707Zm396-402-402 402L221 389 623-13l.707.707Zm-408 402 402-402L617-13 215 389l.707.707Zm396-402-402 402L209 389 611-13l.707.707Zm-408 402 402-402L605-13 203 389l.707.707Zm396-402-402 402L197 389 599-13l.707.707Zm-408 402 402-402L593-13 191 389l.707.707Zm396-402-402 402L185 389 587-13l.707.707Zm-408 402 402-402L581-13 179 389l.707.707Zm396-402-402 402L173 389 575-13l.707.707Zm-408 402 402-402L569-13 167 389l.707.707Zm396-402-402 402L161 389 563-13l.707.707Zm-408 402 402-402L557-13 155 389l.707.707Zm396-402-402 402L149 389 551-13l.707.707Zm-408 402 402-402L545-13 143 389l.707.707Zm396-402-402 402L137 389 539-13l.707.707Zm-408 402 402-402L533-13 131 389l.707.707Zm396-402-402 402L125 389 527-13l.707.707Zm-408 402 402-402L521-13 119 389l.707.707Zm396-402-402 402L113 389 515-13l.707.707Zm-408 402 402-402L509-13 107 389l.707.707Zm396-402-402 402L101 389 503-13l.707.707Zm-408 402 402-402L497-13 95 389l.707.707Zm396-402-402 402L89 389 491-13l.707.707Zm-408 402 402-402L485-13 83 389l.707.707Zm396-402-402 402L77 389 479-13l.707.707Zm-408 402 402-402L473-13 71 389l.707.707Zm396-402-402 402L65 389 467-13l.707.707Zm-408 402 402-402L461-13 59 389l.707.707Zm396-402-402 402L53 389 455-13l.707.707Zm-408 402 402-402L449-13 47 389l.707.707Zm396-402-402 402L41 389 443-13l.707.707Zm-408 402 402-402L437-13 35 389l.707.707Zm396-402-402 402L29 389 431-13l.707.707Zm-408 402 402-402L425-13 23 389l.707.707Zm396-402-402 402L17 389 419-13l.707.707Zm-408 402 402-402L413-13 11 389l.707.707Zm396-402-402 402L5 389 407-13l.707.707Zm-408 402 402-402L401-13-1 389l.707.707Zm396-402-402 402L-7 389 395-13l.707.707Zm-408 402 402-402L389-13-13 389l.707.707Zm396-402-402 402L-19 389 383-13l.707.707Zm-408 402 402-402L377-13-25 389l.707.707Zm396-402-402 402L-31 389 371-13l.707.707Zm-408 402 402-402L365-13-37 389l.707.707Zm396-402-402 402L-43 389 359-13l.707.707Zm-408 402 402-402L353-13-49 389l.707.707Zm396-402-402 402L-55 389 347-13l.707.707Zm-408 402 402-402L341-13-61 389l.707.707Zm396-402-402 402L-67 389 335-13l.707.707Zm-408 402 402-402L329-13-73 389l.707.707Zm396-402-402 402L-79 389 323-13l.707.707Zm-408 402 402-402L317-13-85 389l.707.707Zm396-402-402 402L-91 389 311-13l.707.707Zm-408 402 402-402L305-13-97 389l.707.707Zm396-402-402 402L-103 389 299-13l.707.707Zm-408 402 402-402L293-13l-402 402 .707.707Zm396-402-402 402L-115 389 287-13l.707.707Zm-408 402 402-402L281-13l-402 402 .707.707Zm396-402-402 402L-127 389 275-13l.707.707Zm-408 402 402-402L269-13l-402 402 .707.707Zm396-402-402 402L-139 389 263-13l.707.707Zm-408 402 402-402L257-13l-402 402 .707.707Zm396-402-402 402L-151 389 251-13l.707.707Zm-408 402 402-402L245-13l-402 402 .707.707Zm396-402-402 402L-163 389 239-13l.707.707Zm-408 402 402-402L233-13l-402 402 .707.707Zm396-402-402 402L-175 389 227-13l.707.707Zm-408 402 402-402L221-13l-402 402 .707.707Zm396-402-402 402L-187 389 215-13l.707.707Zm-408 402 402-402L209-13l-402 402 .707.707Zm396-402-402 402L-199 389 203-13l.707.707Zm-408 402 402-402L197-13l-402 402 .707.707Zm396-402-402 402L-211 389 191-13l.707.707Zm-408 402 402-402L185-13l-402 402 .707.707Zm396-402-402 402L-223 389 179-13l.707.707Zm-408 402 402-402L173-13l-402 402 .707.707Zm396-402-402 402L-235 389 167-13l.707.707Zm-408 402 402-402L161-13l-402 402 .707.707Zm396-402-402 402L-247 389 155-13l.707.707Zm-408 402 402-402L149-13l-402 402 .707.707Zm396-402-402 402L-259 389 143-13l.707.707Zm-408 402 402-402L137-13l-402 402 .707.707Zm396-402-402 402L-271 389 131-13l.707.707Zm-408 402 402-402L125-13l-402 402 .707.707Zm396-402-402 402L-283 389 119-13l.707.707Zm-408 402 402-402L113-13l-402 402 .707.707Zm396-402-402 402L-295 389 107-13l.707.707Zm-408 402 402-402L101-13l-402 402 .707.707Zm396-402-402 402L-307 389 95-13l.707.707Zm-408 402 402-402L89-13l-402 402 .707.707Zm396-402-402 402L-319 389 83-13l.707.707Zm-408 402 402-402L77-13l-402 402 .707.707Zm396-402-402 402L-331 389 71-13l.707.707Zm-408 402 402-402L65-13l-402 402 .707.707Zm396-402-402 402L-343 389 59-13l.707.707Zm-408 402 402-402L53-13l-402 402 .707.707Zm396-402-402 402L-355 389 47-13l.707.707Zm-408 402 402-402L41-13l-402 402 .707.707Zm396-402-402 402L-367 389 35-13l.707.707Zm-408 402 402-402L29-13l-402 402 .707.707Zm396-402-402 402L-379 389 23-13l.707.707Zm-408 402 402-402L17-13l-402 402 .707.707Zm396-402-402 402L-391 389 11-13l.707.707Zm-408 402 402-402L5-13l-402 402 .707.707Zm396-402-402 402L-403 389-1-13l.707.707Zm-408 402 402-402L-7-13l-402 402 .707.707Zm396-402-402 402L-415 389-13-13l.707.707Zm-408 402 402-402L-19-13l-402 402 .707.707Zm396-402-402 402L-427 389-25-13l.707.707Zm-408 402 402-402L-31-13l-402 402 .707.707Zm396-402-402 402L-439 389-37-13l.707.707Z" clip-rule="evenodd"/></g></g><path stroke="url(#h)" stroke-opacity=".3" d="m152.189 166.556-.435-.246.435.246 2.846-5.033c11.383-20.131 34.771-30.229 57.229-24.708 25.111 6.173 50.984-6.823 61.024-30.652l3.096-7.347a60.935 60.935 0 0 1 39.638-34.994l21.196-5.969a37.95 37.95 0 0 0 20.259-14.009c16.231-22.013 49.922-19.377 62.531 4.894l23.865 45.94c2.19 4.214 4.361 10.93 6.413 19.525 2.05 8.585 3.974 19.012 5.678 30.629 3.408 23.232 5.935 51.198 6.841 78.651.906 27.458.189 54.384-2.883 75.542-1.536 10.581-3.658 19.699-6.45 26.712-2.799 7.031-6.236 11.861-10.343 13.995L81.047 527.834c-5.593 2.906-11.805 2.885-18.49.477-6.697-2.412-13.841-7.213-21.24-13.824-14.794-13.221-30.496-33.581-45.53-56.157-27.704-41.606-53.068-90.629-66.225-116.057a4200.21 4200.21 0 0 0-3.086-5.957 93.299 93.299 0 0 1 .694-87.332l2.007-3.718a98.012 98.012 0 0 1 102.578-50.083l21.809 3.685.083-.493-.083.493a106.077 106.077 0 0 0 30.822.662l22.853-2.858a60.226 60.226 0 0 0 44.95-30.116Z"/><path fill="url(#i)" d="M0 192h380v111H0z"/></g><defs><linearGradient id="d" x1="356.961" x2="95.586" y1="11.471" y2="454.453" gradientUnits="userSpaceOnUse"><stop stop-color="#6182FE"/><stop offset=".665" stop-color="#6182FE" stop-opacity="0"/></linearGradient><linearGradient id="e" x1="134.901" x2="291.043" y1="118.744" y2="419.304" gradientUnits="userSpaceOnUse"><stop stop-color="#fff"/><stop offset=".706" stop-color="#fff" stop-opacity="0"/></linearGradient><linearGradient id="g" x1="565.5" x2="6.5" y1="-103.5" y2="364" gradientUnits="userSpaceOnUse"><stop stop-color="#fff"/><stop offset=".758" stop-color="#fff" stop-opacity="0"/></linearGradient><linearGradient id="h" x1="356.961" x2="95.586" y1="11.471" y2="454.453" gradientUnits="userSpaceOnUse"><stop stop-color="#6182FE"/><stop offset=".665" stop-color="#6182FE" stop-opacity="0"/></linearGradient><linearGradient id="i" x1="190" x2="190" y1="192" y2="303" gradientUnits="userSpaceOnUse"><stop stop-color="#000211" stop-opacity="0"/><stop offset="1" stop-color="#000211"/></linearGradient><radialGradient id="b" cx="0" cy="0" r="1" gradientTransform="rotate(75.627 74.597 72.179) scale(219.559 317.055)" gradientUnits="userSpaceOnUse"><stop stop-color="#B5D3FD"/><stop offset=".884" stop-color="#B5D3FD" stop-opacity="0"/></radialGradient><radialGradient id="c" cx="0" cy="0" r="1" gradientTransform="matrix(-20.54945 178.40542 -229.37939 -26.42083 203.389 108.589)" gradientUnits="userSpaceOnUse"><stop offset=".19" stop-color="#6182FE"/><stop offset="1" stop-color="#0A0A0A" stop-opacity="0"/></radialGradient><clipPath id="a"><path fill="#fff" d="M0 0h380v303H0z"/></clipPath></defs></svg>