<svg xmlns="http://www.w3.org/2000/svg" width="20" height="21" fill="none"><path fill="#3363FF" d="M4.725 8.762 7.277 5.31C8.926 3.078 9.75 1.962 10.52 2.198c.77.236.77 1.604.77 4.342v.258c0 .987 0 1.48.315 1.79l.017.016c.322.303.836.303 1.863.303 1.85 0 2.774 0 3.086.561l.015.028c.296.57-.24 1.294-1.31 2.742l-2.552 3.453c-1.65 2.232-2.475 3.347-3.244 3.112-.77-.236-.77-1.605-.77-4.342v-.258c0-.987 0-1.48-.315-1.79l-.016-.017c-.323-.303-.837-.303-1.864-.303-1.85 0-2.774 0-3.086-.56a.994.994 0 0 1-.015-.028c-.295-.57.24-1.294 1.31-2.743z"/></svg>