<svg xmlns="http://www.w3.org/2000/svg" width="410" height="141" fill="none"><g clip-path="url(#a)"><rect width="105" height="105" x="152.5" y="35.5" stroke="url(#b)" stroke-opacity=".5" rx="52.5"/><g clip-path="url(#c)" opacity=".15"><path fill="url(#d)" fill-rule="evenodd" d="M125.97 28.403c-8.888-1.451-17.811-.07-26.667 1.302-5.651.876-11.275 1.747-16.846 1.875a90.153 90.153 0 0 1-5.14.057 103.41 103.41 0 0 1-10.259-.652 108.289 108.289 0 0 1-10.143-1.67c-13.398-2.878-26.233-8.366-37.54-16.11C14.06 9.645 8.974 5.023 4.184.671L3.54.086l2.24 6.513c1.524 4.431 3.765 8.598 6.534 12.342 6.765 9.143 16.43 15.747 26.896 19.966-1.42-.043-2.822-.097-4.092-.168-4.32-.211-8.692-.575-12.96-1.196-3.893-.496-8.282-1.744-12.068-2.82l-.031-.01C26.52 50.24 46.928 57.645 68.165 59.084c-11.78 1.566-24.12 3.129-35.901 4.319 16.38 5.796 33.857 8.127 51.18 7.29 3.213-.153 6.425-.405 9.628-.758a67.25 67.25 0 0 0-1.623.662l-1.615.672c-6.304 2.624-12.69 5.28-19.066 7.647-3.463 1.308-7.372 2.672-10.967 3.926l-1.048.366c7.309 1.069 14.91 1.404 22.213.64 9.497-.912 18.81-2.858 28-5.323-10.811 7.867-22.363 16.098-33.273 23.777 15.771-2.413 31.665-6.51 45.978-13.707-.454.484-.904.97-1.351 1.46-5.384 5.881-10.522 12.003-15.541 18.197l-1.863 2.304 2.953-.445c8.778-1.355 17.374-4.33 25.046-8.843.806 3.714.956 7.574.089 11.279-.262 1.261-.863 2.861-1.377 4.23v.001c-.124.33-.243.647-.351.942l.779-.328c1.438-.602 3.157-1.323 4.358-2.031 4.168-2.348 7.966-5.316 11.394-8.639 1.279-1.258 2.506-2.578 3.586-4.01 2.73 3.478 6.636 6.296 12.326 8.132v-.001a13.825 13.825 0 0 0-.251-.226c-5.074-4.646-7.676-11.376-8.702-18.06-.945-6.216-.603-12.468-.261-18.727.293-5.358.586-10.72.072-16.069-1.501-16.401-10.144-26.677-26.608-29.357l.001-.001zm35.498 82.214.119.109.116.104.016.013c-16.162-5.918-17.062-19.451-17.99-33.416-.285-4.282-.572-8.605-1.303-12.761-2.06-11.238-7.878-21.653-19.911-23.986-5.1-1.014-10.343-.67-15.456-.278l-.813.064c-10.814.848-21.912 1.718-32.675 1.428-8.287-.218-16.594-1.15-24.613-3.273-8.963-2.453-17.558-6.544-24.79-12.413-4.752-3.846-8.89-8.512-11.897-13.817a105.465 105.465 0 0 0 23.716 13.905c10.302 4.374 21.32 7.158 32.47 8.147 7.628.7 15.34.528 22.935-.484 2.942-.382 5.883-.878 8.826-1.374 8.421-1.42 16.854-2.842 25.357-1.613 6.586.954 13.192 3.532 17.754 8.51 7.825 8.692 8.22 21.125 7.885 32.263l-.015.483c-.345 11.318-.72 23.653 5.856 33.451l.156.235.19.286.017.025.238.314.243.321.179.237c.239.33.532.667.82.997.101.116.202.232.299.346.238.278.51.547.784.818h.001c.145.143.29.287.432.433.22.211.46.416.699.621l.194.165.161.14zm-35.023-48.762c-26.582 9.02-56.639 10.263-83.739 2.71 4.315-.34 8.614-.878 12.88-1.612a123.31 123.31 0 0 0 13.58-3.112c.653-.19 1.303-.389 1.95-.594 16.962.71 34.357-2.298 50.616-7.937a5.79 5.79 0 0 0-.841 2.278 199.24 199.24 0 0 1-36.953 8.704c12.122-1.153 24.14-3.923 35.566-8.132.308-.115.615-.233.923-.351.153-.06.307-.118.46-.177-.13 1 .014 2.032.413 3.072a140.756 140.756 0 0 1-25.074 5.434 86.738 86.738 0 0 0 25.094-5.386c.083.215.178.429.284.644a7.53 7.53 0 0 0 1.415 2.084c-9.578 2.907-19.51 4.687-29.507 5.218 10.031-.02 20.102-1.803 29.553-5.171a8.14 8.14 0 0 0 3.563 2.14l-.001.001c-.061.062-.123.123-.182.187zm-57.568 20.26a109.98 109.98 0 0 0 10.281-4.139 95.879 95.879 0 0 0 10.793-5.856 68.303 68.303 0 0 0 3.262-2.2c2.926-.326 5.844-.74 8.746-1.242a86.143 86.143 0 0 1-13.442 7.058 44.29 44.29 0 0 0 13.628-7.09 134.946 134.946 0 0 0 14.044-3.221c-5.778 4.846-12.266 8.89-19.209 11.838-.882.38-2.188.9-3.065 1.246.901-.28 2.237-.754 3.13-1.084 7.08-2.727 13.675-6.818 19.205-12.018a124.051 124.051 0 0 0 9.993-3.337 9.347 9.347 0 0 0-.633.777c-3.857 3.793-8.178 7.129-12.925 9.725a62.29 62.29 0 0 1-5.315 2.58c6.807-2.144 12.983-6.25 17.755-11.555-.238.42-.433.865-.572 1.336-.455 1.545-.315 3.295.498 4.693.83 1.357 2.131 2.233 3.564 2.777-10.142 2.724-20.301 5.39-30.631 7.295-9.587 1.736-19.377 2.987-29.108 2.417zM85.37 98.35a219.8 219.8 0 0 0 8.943-6.57c5.292-4.135 10.418-8.51 15.066-13.366 2.696-.727 5.381-1.5 8.056-2.302a179.471 179.471 0 0 1-15.221 12.364 79.708 79.708 0 0 0 15.329-12.396 506.655 506.655 0 0 0 11.274-3.553c-5.704 5.547-12.171 10.355-19.195 14.1a134.61 134.61 0 0 1-3.072 1.583 76.713 76.713 0 0 0 3.155-1.42c7.177-3.52 13.74-8.377 19.143-14.273a.278.278 0 0 0 .038-.012c-.822 1.229-1.322 2.695-1.2 4.191.087 1.07.492 2.116 1.177 2.937a97.12 97.12 0 0 1-17.818 8.713 59.14 59.14 0 0 0 17.864-8.661c.28.325.602.615.97.853 1.127.716 2.417.909 3.694.826-14.79 8.66-31.383 13.879-48.203 16.988v-.002zm41.278-53.957c8.188 3.45 12.381 12.312 14.083 20.596.797 4.028 1.199 8.235 1.598 12.413.89 9.33 1.767 18.516 7.014 25.247-2.846 2.307-5.815 4.408-8.859 6.421-2.343 1.522-4.767 3.052-7.272 4.323.898-4.144.289-8.715-2.041-12.278a63.211 63.211 0 0 0 9.711-7.08c-9.981 6.209-20.921 10.865-32.428 13.235l.222-.289c4.151-5.425 8.23-10.936 12.079-16.581.461-.673.914-1.351 1.365-2.031a106.49 106.49 0 0 0 5.177-2.814c-.387.577-.831 1.235-1.167 1.715-3.664 5.33-7.877 10.303-12.453 14.87 4.898-4.254 9.145-9.288 12.599-14.776.321-.526.757-1.247 1.116-1.865a98.392 98.392 0 0 0 6.562-4.17c.11-.01.221-.024.331-.04a8.826 8.826 0 0 0-.323 3.673 175.255 175.255 0 0 1-13.28 14.668 80.368 80.368 0 0 0 13.293-14.569 7.447 7.447 0 0 0 1.128 3.063 7.65 7.65 0 0 0 1.685 1.865 54.438 54.438 0 0 1-11.288 8.499 31.344 31.344 0 0 0 11.318-8.476c1.553 1.227 3.559 1.868 5.513 1.657-3.966-.195-7.409-3.68-7.024-7.687.091-1.233.513-2.425 1.154-3.477l1.055-1.734-2.067.493-.176.042a8.632 8.632 0 0 1-1.416.19c-.988.055-2.06-.085-2.842-.64-1.122-.827-1.408-2.383-.959-3.693.308-.919.92-1.785 1.687-2.475l1.726-1.554-2.351-.438-.177-.033c-1.641-.368-3.58-1.159-4.12-2.868-.361-1.239-.116-2.479.668-3.587.627-.903 1.45-1.59 2.324-2.32l.215-.18 2.848-2.396-3.667.423c-2.68.301-5.328-1.418-6.274-3.936-.689-1.566-.411-3.102.592-4.471l.685-.971-1.096-.183c-1.828-.424-3.801-1.426-4.524-3.25-.498-1.334-.639-2.939-.15-4.306 2.821.176 5.605.679 8.208 1.773l-.002.002zm-25.261-.81h.001c4.18-.368 8.358-.736 12.542-1.009.883-.03 1.772-.04 2.66-.027-1.237.361-2.478.709-3.728 1.025-13.634 3.443-27.787 4.147-41.796 4.3 11.031.263 22.148-.164 33.025-2.125.475-.087 1.768-.328 2.222-.417l.403-.088 1.805-.398c.881-.186 1.857-.436 2.795-.676.423-.108.837-.214 1.231-.312a108.98 108.98 0 0 0 4.272-1.303c.441.01.881.024 1.32.049-.446.892-.63 1.94-.592 2.924.005.198.018.396.038.595-5.446 1.542-11.077 2.818-16.669 3.681-5.712.89-11.596 1.381-17.37 1.571 11.513.445 23.197-1.32 34.042-5.227.09.86.331 1.709.81 2.43a388.344 388.344 0 0 1-29.484 6.409 162.533 162.533 0 0 0 29.5-6.384c.038.056.075.111.115.164.819 1.118 1.978 1.919 3.243 2.456-33.903 9.67-73.718 9.886-102.732-12.013.953.142 1.907.26 2.862.36 6.25.608 12.547.552 18.785-.084 10.459 3.949 21.774 5.34 32.814 5.517v.002c9.353.21 18.623-.605 27.886-1.42zm34.899 59.434a46.3 46.3 0 0 1-1.69 3.923c1.9-2.596 3.083-5.981 3.205-9.197-.402 1.79-.879 3.554-1.515 5.272v.002zm3.134-.14c.658-1.574 1.335-3.138 2.129-4.651-.502 1.634-1.122 3.221-1.764 4.803-.65 1.556-1.343 3.161-2.129 4.651.492-1.61 1.131-3.241 1.764-4.803zm-.589 5.463c3.086-1.785 5.629-4.809 6.84-8.163-.989 1.754-2.123 3.415-3.456 4.921a30.77 30.77 0 0 1-3.384 3.242zm7.838-34.242c.281 3.362.562 6.72 1.071 10.06l.002.002c.213 1.454.536 3.132.86 4.567l.034.138c.134.536.416 1.665.559 2.109l.328 1.116.378 1.1.189.552.215.54.432 1.084c-3.226-6.725-4.052-14.113-4.878-21.494-.905-8.1-1.81-16.191-5.885-23.39-6.482-11.8-19.756-13.569-32.008-12.363a304.24 304.24 0 0 0-6.744.742c-4.713.554-9.439 1.11-14.176 1.202-1.265.018-3.415.046-4.688-.002l-1.172-.027-.586-.014-.585-.031c-12.483-.525-24.875-3.259-36.307-8.17a112.065 112.065 0 0 0 36.343 7.06c.438.023 1.092.025 1.663.026.241 0 .467 0 .656.003.897.023 2.151-.009 3.274-.037.493-.012.962-.024 1.363-.03 4.303-.107 8.635-.658 12.972-1.21 8.927-1.134 17.871-2.272 26.612.459 13.557 4.05 18.194 16.981 19.509 29.843.225 2.054.397 4.11.569 6.165z" clip-rule="evenodd"/></g><g clip-path="url(#e)" opacity=".15"><path fill="url(#f)" fill-rule="evenodd" d="M284.629 28.403c8.888-1.451 17.81-.07 26.667 1.302 5.651.876 11.275 1.747 16.846 1.875 1.632.063 3.504.091 5.14.057 3.413-.04 6.87-.272 10.258-.652 3.357-.387 6.843-.962 10.143-1.67 13.399-2.878 26.234-8.366 37.54-16.11 5.316-3.56 10.403-8.182 15.192-12.534l.645-.585-2.24 6.513c-1.524 4.431-3.766 8.598-6.535 12.342-6.764 9.143-16.429 15.747-26.895 19.966 1.42-.043 2.822-.097 4.092-.168 4.32-.211 8.691-.575 12.96-1.196 3.893-.496 8.282-1.744 12.067-2.82l.032-.01c-16.463 15.526-36.871 22.932-58.107 24.371 11.78 1.566 24.12 3.129 35.901 4.319-16.381 5.796-33.858 8.127-51.18 7.29a154.53 154.53 0 0 1-9.629-.758c.545.214 1.086.434 1.623.662l1.615.672h.001c6.304 2.624 12.69 5.28 19.066 7.647 3.462 1.308 7.371 2.672 10.966 3.926l1.049.366c-7.309 1.069-14.911 1.404-22.214.64-9.496-.912-18.81-2.858-27.999-5.323 10.811 7.867 22.363 16.098 33.273 23.777-15.772-2.413-31.665-6.51-45.978-13.707.454.484.904.97 1.35 1.46 5.385 5.881 10.523 12.003 15.542 18.197l1.863 2.304-2.954-.445c-8.777-1.355-17.373-4.33-25.046-8.843-.805 3.714-.956 7.574-.089 11.279.262 1.261.863 2.861 1.377 4.23l.001.001c.124.33.243.647.351.942l-.78-.328c-1.437-.602-3.157-1.323-4.357-2.031-4.169-2.348-7.966-5.316-11.394-8.639-1.279-1.258-2.507-2.578-3.586-4.01-2.731 3.478-6.636 6.296-12.326 8.132v-.001a9.3 9.3 0 0 1 .251-.226c5.074-4.646 7.675-11.376 8.701-18.06.946-6.216.604-12.468.262-18.727-.294-5.358-.587-10.72-.073-16.069 1.502-16.401 10.144-26.677 26.609-29.357l-.001-.001zm-35.498 82.214-.12.109-.116.104-.015.013c16.161-5.918 17.061-19.451 17.99-33.416.284-4.282.572-8.605 1.303-12.761 2.06-11.238 7.877-21.653 19.91-23.986 5.1-1.014 10.344-.67 15.457-.278l.813.064c10.814.848 21.911 1.718 32.675 1.428 8.287-.218 16.594-1.15 24.613-3.273 8.963-2.453 17.558-6.544 24.789-12.413 4.752-3.846 8.891-8.512 11.898-13.817a105.469 105.469 0 0 1-23.716 13.905c-10.302 4.374-21.319 7.158-32.47 8.147a102.71 102.71 0 0 1-22.935-.484c-2.942-.382-5.884-.878-8.826-1.374-8.421-1.42-16.854-2.842-25.357-1.613-6.586.954-13.192 3.532-17.755 8.51-7.825 8.692-8.219 21.125-7.884 32.263l.015.483c.344 11.318.72 23.653-5.856 33.451-.034.049-.093.14-.156.235l-.191.286-.017.025-.238.314-.242.321-.179.237c-.239.33-.533.667-.821.997l-.299.346c-.237.278-.509.547-.784.818a25.19 25.19 0 0 0-.432.433c-.221.211-.46.416-.7.621l-.193.165-.161.14zm35.023-48.762c26.582 9.02 56.638 10.263 83.738 2.71-4.314-.34-8.614-.878-12.879-1.612a123.343 123.343 0 0 1-13.581-3.112 81.235 81.235 0 0 1-1.95-.594c-16.962.71-34.356-2.298-50.616-7.937a5.79 5.79 0 0 1 .842 2.278 199.22 199.22 0 0 0 36.952 8.704c-12.122-1.153-24.14-3.923-35.565-8.132-.308-.115-.615-.233-.923-.351-.153-.06-.307-.118-.46-.177.129 1-.015 2.032-.413 3.072a140.74 140.74 0 0 0 25.074 5.434 86.73 86.73 0 0 1-25.094-5.386 8.75 8.75 0 0 1-.284.644 7.553 7.553 0 0 1-1.415 2.084c9.578 2.907 19.51 4.687 29.506 5.218-10.031-.02-20.102-1.803-29.552-5.171a8.15 8.15 0 0 1-3.563 2.14l.001.001c.061.062.123.123.182.187zm57.568 20.26a110.024 110.024 0 0 1-10.282-4.139 95.969 95.969 0 0 1-10.792-5.856 68.565 68.565 0 0 1-3.263-2.2 145.707 145.707 0 0 1-8.745-1.242 86.127 86.127 0 0 0 13.441 7.058 44.284 44.284 0 0 1-13.627-7.09 134.888 134.888 0 0 1-14.044-3.221c5.778 4.846 12.266 8.89 19.209 11.838.882.38 2.188.9 3.065 1.246a72.238 72.238 0 0 1-3.131-1.084c-7.079-2.727-13.675-6.818-19.204-12.018a124.051 124.051 0 0 1-9.993-3.337c.223.246.436.506.633.777 3.856 3.793 8.178 7.129 12.925 9.725a62.29 62.29 0 0 0 5.315 2.58c-6.807-2.144-12.983-6.25-17.755-11.555.237.42.433.865.571 1.336.455 1.545.316 3.295-.497 4.693-.831 1.357-2.131 2.233-3.564 2.777 10.142 2.724 20.301 5.39 30.631 7.295 9.587 1.736 19.377 2.987 29.108 2.417h-.001zM325.228 98.35a219.867 219.867 0 0 1-8.943-6.57c-5.292-4.135-10.418-8.51-15.066-13.366-2.696-.727-5.381-1.5-8.056-2.302a179.471 179.471 0 0 0 15.221 12.364 79.714 79.714 0 0 1-15.33-12.396 506.655 506.655 0 0 1-11.274-3.553c5.704 5.547 12.172 10.355 19.195 14.1.883.477 2.193 1.141 3.072 1.583a77.323 77.323 0 0 1-3.155-1.42c-7.176-3.52-13.74-8.377-19.142-14.273a.325.325 0 0 1-.038-.012c.821 1.229 1.322 2.695 1.199 4.191a5.27 5.27 0 0 1-1.177 2.937 97.13 97.13 0 0 0 17.819 8.713 59.129 59.129 0 0 1-17.864-8.661c-.28.325-.603.615-.97.853-1.127.716-2.417.909-3.694.826 14.79 8.66 31.382 13.879 48.202 16.988l.001-.002zM283.95 44.394c-8.189 3.45-12.381 12.312-14.083 20.596-.798 4.028-1.199 8.235-1.598 12.413-.89 9.33-1.767 18.516-7.014 25.247 2.845 2.307 5.815 4.408 8.859 6.421 2.343 1.522 4.767 3.052 7.271 4.323-.897-4.144-.289-8.715 2.042-12.278a63.171 63.171 0 0 1-9.712-7.08c9.982 6.209 20.922 10.865 32.428 13.235l-.221-.289c-4.151-5.425-8.231-10.936-12.079-16.581-.462-.673-.914-1.351-1.365-2.031-1.75-.89-3.478-1.828-5.178-2.814.388.577.832 1.235 1.168 1.715 3.663 5.33 7.876 10.303 12.452 14.87-4.898-4.254-9.145-9.288-12.598-14.776a97.85 97.85 0 0 1-1.116-1.865 98.135 98.135 0 0 1-6.562-4.17 8.298 8.298 0 0 1-.331-.04 8.826 8.826 0 0 1 .323 3.673 175.244 175.244 0 0 0 13.279 14.668 80.404 80.404 0 0 1-13.293-14.569 7.431 7.431 0 0 1-1.127 3.063 7.65 7.65 0 0 1-1.685 1.865 54.432 54.432 0 0 0 11.287 8.499 31.34 31.34 0 0 1-11.317-8.476c-1.553 1.227-3.56 1.868-5.513 1.657 3.966-.195 7.409-3.68 7.024-7.687-.091-1.233-.513-2.425-1.154-3.477l-1.055-1.734 2.067.493.176.042c.463.103.945.166 1.416.19.988.055 2.06-.085 2.842-.64 1.122-.827 1.408-2.383.958-3.693-.307-.919-.919-1.785-1.686-2.475l-1.727-1.554 2.351-.438.177-.033c1.642-.368 3.58-1.159 4.121-2.868.36-1.239.115-2.479-.669-3.587-.627-.903-1.449-1.59-2.323-2.32l-.215-.18-2.849-2.396 3.667.423c2.681.301 5.329-1.418 6.274-3.936.69-1.566.412-3.102-.591-4.471l-.685-.971 1.096-.183c1.827-.424 3.8-1.426 4.524-3.25.497-1.334.639-2.939.15-4.306-2.821.176-5.605.679-8.209 1.773l.003.002zm25.261-.81h-.001c-4.18-.368-8.358-.736-12.542-1.009a53.1 53.1 0 0 0-2.66-.027c1.237.361 2.478.709 3.728 1.025 13.634 3.443 27.786 4.147 41.795 4.3-11.031.263-22.148-.164-33.024-2.125-.475-.087-1.769-.328-2.223-.417l-.402-.088-1.806-.398c-.88-.186-1.856-.436-2.794-.676h-.001c-.422-.108-.836-.214-1.231-.312-1.433-.405-2.857-.84-4.272-1.303-.441.01-.88.024-1.319.049.446.892.63 1.94.592 2.924a7.914 7.914 0 0 1-.038.595c5.446 1.542 11.077 2.818 16.668 3.681 5.712.89 11.597 1.381 17.371 1.571-11.514.445-23.197-1.32-34.042-5.227-.09.86-.332 1.709-.81 2.43a388.197 388.197 0 0 0 29.484 6.409 162.504 162.504 0 0 1-29.5-6.384 3.997 3.997 0 0 1-.116.164c-.818 1.118-1.978 1.919-3.243 2.456 33.904 9.67 73.719 9.886 102.733-12.013-.954.142-1.907.26-2.862.36-6.249.608-12.547.552-18.786-.084-10.458 3.949-21.773 5.34-32.813 5.517l-.001.002c-9.352.21-18.622-.605-27.885-1.42zm-34.9 59.434a46.634 46.634 0 0 0 1.691 3.923c-1.9-2.596-3.083-5.981-3.205-9.197.401 1.79.879 3.554 1.515 5.272l-.001.002zm-3.134-.14c-.657-1.574-1.334-3.138-2.129-4.651.503 1.634 1.123 3.221 1.764 4.803.65 1.556 1.343 3.161 2.129 4.651-.491-1.61-1.13-3.241-1.764-4.803zm.589 5.463c-3.086-1.785-5.628-4.809-6.839-8.163.988 1.754 2.123 3.415 3.456 4.921a30.85 30.85 0 0 0 3.383 3.242zm-7.837-34.242c-.282 3.362-.563 6.72-1.071 10.06l-.003.002a64.567 64.567 0 0 1-.859 4.567l-.035.138c-.134.536-.415 1.665-.558 2.109l-.329 1.116-.378 1.1-.188.552-.215.54-.432 1.084c3.226-6.725 4.052-14.113 4.877-21.494.906-8.1 1.81-16.191 5.886-23.39 6.481-11.8 19.755-13.569 32.008-12.363a304.9 304.9 0 0 1 6.744.742c4.712.554 9.438 1.11 14.176 1.202 1.264.018 3.414.046 4.688-.002l1.171-.027.587-.014.585-.031c12.483-.525 24.875-3.259 36.307-8.17a112.067 112.067 0 0 1-36.344 7.06c-.438.023-1.091.025-1.663.026-.24 0-.467 0-.656.003-.896.023-2.15-.009-3.273-.037-.494-.012-.962-.024-1.363-.03-4.303-.107-8.636-.658-12.972-1.21-8.927-1.134-17.871-2.272-26.612.459-13.558 4.05-18.194 16.981-19.51 29.843-.224 2.054-.396 4.11-.568 6.165z" clip-rule="evenodd"/></g><rect width="89" height="89" x="160.5" y="43.5" fill="url(#g)" fill-opacity=".3" rx="44.5"/><rect width="89" height="89" x="160.5" y="43.5" stroke="url(#h)" rx="44.5"/><g clip-path="url(#i)"><rect width="70" height="70" x="170" y="53" fill="url(#j)" rx="35"/><g clip-path="url(#k)"><path fill="url(#l)" fill-opacity=".2" fill-rule="evenodd" d="M31.87 339.925-314.36 53.637l.637-.77 346.23 286.286-.637.771zm5.168 0L-309.193 53.637l.637-.77L37.675 339.153l-.637.771zM-304.026 53.637 42.206 339.925l.637-.771-346.231-286.288-.638.77zm351.4 286.288L-298.859 53.637l.637-.77L48.01 339.153l-.637.771zM-293.69 53.637 52.54 339.925l.638-.771-346.231-286.288-.637.77zM57.708 339.925-288.523 53.637l.637-.77L58.346 339.153l-.638.771zM-283.355 53.637 62.876 339.925l.637-.771-346.231-286.288-.637.77zM68.044 339.925-278.188 53.637l.638-.77L68.681 339.153l-.637.771zM-273.02 53.637 73.211 339.925l.638-.771-346.232-286.288-.637.77zM78.379 339.925-267.852 53.637l.637-.77L79.016 339.153l-.637.771zM-262.685 53.637 83.547 339.925l.637-.771-346.231-286.288-.638.77zm351.4 286.288L-257.518 53.637l.637-.77L89.351 339.153l-.637.771zM-252.35 53.637 93.88 339.925l.638-.771-346.231-286.288-.637.77zm351.4 286.288L-247.183 53.637l.637-.77L99.687 339.153l-.638.771zM-242.014 53.637l346.231 286.288.637-.771-346.231-286.288-.637.77zm351.399 286.288L-236.846 53.637l.637-.77 346.231 286.287-.637.771zM-231.679 53.637l346.231 286.288.638-.771-346.232-286.288-.637.77zM119.72 339.925-226.511 53.637l.637-.77 346.231 286.287-.637.771zM-221.344 53.637l346.232 286.288.637-.771-346.231-286.288-.638.77zm351.399 286.288L-216.176 53.637l.637-.77 346.232 286.287-.638.771zM-211.008 53.637l346.231 286.288.637-.771-346.231-286.288-.637.77zm351.399 286.288L-205.841 53.637l.638-.77 346.231 286.287-.637.771zM-200.673 53.637l346.231 286.288.637-.771-346.231-286.288-.637.77zm351.399 286.288L-195.505 53.637l.637-.77 346.231 286.287-.637.771zM-190.338 53.637l346.231 286.288.638-.771-346.232-286.288-.637.77zm351.399 286.288L-185.17 53.637l.637-.77 346.231 286.287-.637.771zM-180.003 53.637l346.232 286.288.637-.771-346.231-286.288-.638.77zm351.399 286.288L-174.835 53.637l.637-.77 346.232 286.287-.638.771zM-169.667 53.637l346.231 286.288.637-.771L-169.03 52.866l-.637.77zm351.399 286.288L-164.5 53.637l.638-.77 346.231 286.287-.637.771zM-159.332 53.637l346.231 286.288.637-.771-346.231-286.288-.637.77zm351.399 286.288L-154.164 53.637l.637-.77 346.231 286.287-.637.771zM-148.997 53.637l346.231 286.288.638-.771L-148.36 52.866l-.637.77zm351.399 286.288L-143.829 53.637l.637-.77 346.231 286.287-.637.771zM-138.662 53.637 207.57 339.925l.637-.771-346.231-286.288-.638.77zm351.399 286.288L-133.494 53.637l.637-.77 346.232 286.287-.638.771zM-128.326 53.637l346.231 286.288.637-.771-346.231-286.288-.637.77zm351.399 286.288L-123.159 53.637l.638-.77L223.71 339.153l-.637.771zM-117.991 53.637 228.24 339.925l.637-.771-346.231-286.288-.637.77zm351.399 286.288L-112.823 53.637l.637-.77 346.231 286.287-.637.771zM-107.656 53.637l346.232 286.288.637-.771-346.232-286.288-.637.77zm351.399 286.288L-102.488 53.637l.637-.77L244.38 339.153l-.637.771zM-97.32 53.637l346.23 286.288.637-.771-346.23-286.288-.637.77zm351.398 286.288L-92.152 53.637l.636-.77 346.232 286.287-.638.771zM-86.985 53.637l346.231 286.288.637-.771L-86.348 52.866l-.637.77zm351.399 286.288L-81.818 53.637l.638-.77 346.23 286.286-.637.771zM-76.65 53.637l346.231 286.288.638-.771L-76.013 52.866l-.637.77zm351.399 286.288L-71.482 53.637l.637-.77 346.231 286.287-.637.771zM-66.315 53.637l346.232 286.288.637-.771L-65.677 52.866l-.638.77zm351.399 286.288L-61.147 53.637l.637-.77 346.231 286.287-.637.771zM-55.979 53.637l346.231 286.288.637-.771L-55.342 52.866l-.638.77zm351.398 286.288L-50.811 53.637l.636-.77 346.232 286.287-.638.771zM-45.644 53.637l346.231 286.288.637-.771-346.23-286.288-.638.77zm351.399 286.288L-40.477 53.637l.638-.77 346.231 286.287-.637.771zM-35.309 53.637l346.231 286.288.638-.771L-34.672 52.866l-.637.77zM316.09 339.925-30.141 53.637l.637-.77 346.231 286.287-.637.771zM-24.974 53.637l346.232 286.288.637-.771L-24.336 52.866l-.638.77zm351.399 286.288L-19.806 53.637l.637-.77 346.231 286.287-.637.771zM-14.638 53.637l346.231 286.288.637-.771L-14.001 52.866l-.637.77zM336.76 339.925-9.47 53.637l.636-.77 346.232 286.287-.638.771zM-4.303 53.637l346.231 286.288.637-.771L-3.665 52.866l-.638.77zm351.399 286.288L.865 53.637l.637-.77 346.231 286.287-.637.771zM6.032 53.637l346.231 286.288.638-.771L6.669 52.866l-.637.77zm351.399 286.288L11.2 53.637l.637-.77 346.231 286.287-.637.771zM16.367 53.637 362.6 339.925l.637-.771L17.005 52.866l-.638.77zm351.399 286.288L21.535 53.637l.637-.77 346.231 286.287-.637.771zM26.703 53.637l346.231 286.288.637-.771L27.34 52.866l-.637.77zm351.399 286.288L31.87 53.637l.638-.77 346.231 286.287-.637.771zM37.038 53.637l346.231 286.288.637-.771L37.676 52.866l-.638.77zm351.399 286.288L42.206 53.637l.637-.77 346.231 286.287-.637.771zM47.373 53.637l346.231 286.288.638-.771L48.01 52.866l-.637.77zm351.399 286.288L52.541 53.637l.637-.77 346.231 286.287-.637.771zM57.709 53.637 403.94 339.925l.637-.771L58.346 52.866l-.637.77zm351.398 286.288L62.877 53.637l.636-.77 346.232 286.287-.638.771zM68.044 53.637l346.231 286.288.637-.771L68.681 52.866l-.637.77zm351.399 286.288L73.211 53.637l.638-.77L420.08 339.153l-.637.771zM78.379 53.637 424.61 339.925l.637-.771L79.017 52.866l-.638.77zm351.399 286.288L83.546 53.637l.638-.77 346.231 286.287-.637.771zM88.714 53.637l346.231 286.288.638-.771L89.351 52.866l-.637.77zm351.399 286.288L93.882 53.637l.637-.77L440.75 339.153l-.637.771zM99.05 53.637l346.23 286.288.637-.771L99.687 52.866l-.638.77zm351.398 286.288L104.217 53.637l.637-.77 346.232 286.287-.638.771zM109.385 53.637l346.231 286.288.637-.771L110.022 52.866l-.637.77zm351.399 286.288L114.552 53.637l.638-.77 346.231 286.287-.637.771zM119.72 53.637l346.231 286.288.638-.771L120.357 52.866l-.637.77zm351.399 286.288L124.888 53.637l.637-.77 346.231 286.287-.637.771zM130.055 53.637l346.231 286.288.638-.771L130.692 52.866l-.637.77zm351.399 286.288L135.223 53.637l.637-.77 346.231 286.287-.637.771zM140.391 53.637l346.231 286.288.637-.771L141.028 52.866l-.637.77zm351.398 286.288L145.558 53.637l.637-.77 346.232 286.287-.638.771zM150.726 53.637l346.231 286.288.637-.771L151.363 52.866l-.637.77zm351.399 286.288L155.893 53.637l.638-.77 346.231 286.287-.637.771zM161.061 53.637l346.231 286.288.638-.771L161.698 52.866l-.637.77zM512.46 339.925 166.229 53.637l.637-.77 346.231 286.287-.637.771zM171.396 53.637l346.232 286.288.637-.771L172.034 52.866l-.638.77zm351.399 286.288L176.564 53.637l.637-.77 346.231 286.287-.637.771zM181.732 53.637l346.231 286.288.637-.771L182.369 52.866l-.637.77zM533.13 339.925 186.899 53.637l.637-.77 346.232 286.287-.638.771zM192.067 53.637l346.231 286.288.637-.771L192.704 52.866l-.637.77zm351.399 286.288L197.235 53.637l.637-.77 346.231 286.287-.637.771zM202.402 53.637l346.231 286.288.638-.771L203.039 52.866l-.637.77zm351.399 286.288L207.57 53.637l.637-.77 346.231 286.287-.637.771zM212.737 53.637l346.232 286.288.637-.771L213.375 52.866l-.638.77zm351.399 286.288L217.905 53.637l.637-.77 346.231 286.287-.637.771zM223.073 53.637l346.231 286.288.637-.771L223.71 52.866l-.637.77zm351.398 286.288L228.24 53.637l.637-.77 346.232 286.287-.638.771zM233.408 53.637l346.231 286.288.637-.771L234.045 52.866l-.637.77zm351.399 286.288L238.576 53.637l.637-.77 346.231 286.287-.637.771zM243.743 53.637l346.231 286.288.638-.771L244.38 52.866l-.637.77zm351.399 286.288L248.911 53.637l.637-.77 346.231 286.287-.637.771zM254.078 53.637 600.31 339.925l.637-.771L254.716 52.866l-.638.77zm351.399 286.288L259.246 53.637l.637-.77 346.232 286.287-.638.771zM264.414 53.637l346.231 286.288.637-.771L265.051 52.866l-.637.77zm351.398 286.288L269.581 53.637l.637-.77L616.45 339.153l-.638.771zM274.749 53.637 620.98 339.925l.637-.771L275.386 52.866l-.637.77zm351.399 286.288L279.917 53.637l.637-.77 346.231 286.287-.637.771zM285.084 53.637l346.231 286.288.638-.771L285.721 52.866l-.637.77zm351.399 286.288L290.252 53.637l.637-.77L637.12 339.153l-.637.771zM295.419 53.637l346.232 286.288.637-.771L296.057 52.866l-.638.77zm351.399 286.288L300.587 53.637l.637-.77 346.231 286.287-.637.771zM305.755 53.637l346.231 286.288.637-.771L306.392 52.866l-.637.77zm351.399 286.288L310.922 53.637l.638-.77 346.231 286.287-.637.771zM316.09 53.637l346.231 286.288.637-.771L316.727 52.866l-.637.77zm351.399 286.288L321.258 53.637l.637-.77 346.231 286.287-.637.771zM326.425 53.637l346.231 286.288.638-.771L327.062 52.866l-.637.77zm351.399 286.288L331.593 53.637l.637-.77 346.231 286.287-.637.771zM336.76 53.637l346.232 286.288.637-.771L337.398 52.866l-.638.77zm351.399 286.288L341.928 53.637l.637-.77 346.232 286.287-.638.771zM347.096 53.637l346.231 286.288.637-.771L347.733 52.866l-.637.77zm351.399 286.288L352.263 53.637l.638-.77 346.231 286.287-.637.771zM357.431 53.637l346.231 286.288.637-.771L358.068 52.866l-.637.77zM708.83 339.925 362.599 53.637l.637-.77 346.231 286.287-.637.771zM367.766 53.637l346.232 286.288.637-.771L368.404 52.866l-.638.77zm351.399 286.288L372.934 53.637l.637-.77 346.231 286.287-.637.771zM378.102 53.637l346.231 286.288.637-.771L378.739 52.866l-.637.77z" clip-rule="evenodd"/></g></g></g><defs><linearGradient id="b" x1="205" x2="205" y1="35" y2="141" gradientUnits="userSpaceOnUse"><stop stop-color="#171D45"/><stop offset="1" stop-color="#171D45" stop-opacity="0"/></linearGradient><linearGradient id="d" x1="63.618" x2="104.885" y1="-17.106" y2="127.107" gradientUnits="userSpaceOnUse"><stop stop-color="#95ACFE"/><stop offset="1" stop-color="#95ACFE" stop-opacity="0"/></linearGradient><linearGradient id="f" x1="346.98" x2="305.714" y1="-17.106" y2="127.107" gradientUnits="userSpaceOnUse"><stop stop-color="#95ACFE"/><stop offset="1" stop-color="#95ACFE" stop-opacity="0"/></linearGradient><linearGradient id="h" x1="205" x2="205" y1="43" y2="133" gradientUnits="userSpaceOnUse"><stop stop-color="#171D45"/><stop offset="1" stop-color="#171D45" stop-opacity="0"/></linearGradient><linearGradient id="l" x1="199.681" x2="205.273" y1="-117.311" y2="339.925" gradientUnits="userSpaceOnUse"><stop stop-color="#fff"/><stop offset=".521" stop-color="#fff" stop-opacity="0"/></linearGradient><clipPath id="a"><path fill="#fff" d="M0 0h410v141H0z"/></clipPath><clipPath id="c"><path fill="#fff" d="m.404.982 126.428-36.176 41.265 144.212L41.67 145.195z"/></clipPath><clipPath id="e"><path fill="#fff" d="M410.184.981 283.756-35.195l-41.265 144.212 126.428 36.176z"/></clipPath><clipPath id="i"><rect width="70" height="70" x="170" y="53" fill="#fff" rx="35"/></clipPath><clipPath id="k"><path fill="#fff" d="M56 53h298v287H56z"/></clipPath><radialGradient id="g" cx="0" cy="0" r="1" gradientTransform="rotate(90 156.375 48.625) scale(320.625)" gradientUnits="userSpaceOnUse"><stop stop-color="#003BFF"/><stop offset=".75" stop-color="#003BFF" stop-opacity="0"/></radialGradient><radialGradient id="j" cx="0" cy="0" r="1" gradientTransform="matrix(0 249.375 -249.375 0 205 -64.25)" gradientUnits="userSpaceOnUse"><stop stop-color="#003BFF"/><stop offset=".75" stop-color="#003BFF" stop-opacity="0"/></radialGradient></defs></svg>