<svg xmlns="http://www.w3.org/2000/svg" width="24" height="18" fill="none"><path fill="url(#a)" fill-opacity=".5" d="M6.434.266C6.43.126 6.317 0 6.176 0H1.5C.948 0 .494.45.56.998c.476 3.948 3.739 7.007 7.696 7.007h5.667c.003 0 .006-.001.006-.005 0-.003-.003-.007-.006-.007C9.847 7.852 6.565 4.476 6.434.266z"/><path fill="url(#b)" fill-opacity=".5" d="M13.927 10.009a.007.007 0 0 0 .002-.005.008.008 0 0 0-.009-.009H8.256c-3.958 0-7.22 3.056-7.696 7.007-.066.548.388.998.94.998h4.672c.14 0 .254-.126.258-.266.135-4.207 3.415-7.584 7.492-7.723.002 0 .004 0 .005-.002z"/><path fill="url(#c)" fill-opacity=".5" d="M16.003.014a.007.007 0 0 0-.005-.002c-.086 0-.168-.012-.25-.012h-4.673c-.552 0-1.006.45-.94.998.476 3.948 3.739 7.007 7.696 7.007h5.667c.003 0 .006-.001.006-.005 0-.003-.003-.007-.006-.007-4.157-.144-7.488-3.653-7.493-7.975 0-.001 0-.003-.002-.004z"/><path fill="url(#d)" fill-opacity=".5" d="M23.498 10.009a.007.007 0 0 0 .002-.005.008.008 0 0 0-.008-.009h-5.664c-3.955 0-7.22 3.056-7.697 7.007-.066.548.388.998.94.998h4.673c.14 0 .253-.126.258-.266.135-4.207 3.414-7.584 7.492-7.723.001 0 .003 0 .004-.002z"/><defs><linearGradient id="a" x1="23.504" x2=".498" y1="8.998" y2="8.998" gradientUnits="userSpaceOnUse"><stop stop-color="#1A4BFF"/><stop offset="1" stop-color="#1A4BFF" stop-opacity="0"/></linearGradient><linearGradient id="b" x1="23.504" x2=".498" y1="8.998" y2="8.998" gradientUnits="userSpaceOnUse"><stop stop-color="#1A4BFF"/><stop offset="1" stop-color="#1A4BFF" stop-opacity="0"/></linearGradient><linearGradient id="c" x1="23.504" x2=".498" y1="8.998" y2="8.998" gradientUnits="userSpaceOnUse"><stop stop-color="#1A4BFF"/><stop offset="1" stop-color="#1A4BFF" stop-opacity="0"/></linearGradient><linearGradient id="d" x1="23.504" x2=".498" y1="8.998" y2="8.998" gradientUnits="userSpaceOnUse"><stop stop-color="#1A4BFF"/><stop offset="1" stop-color="#1A4BFF" stop-opacity="0"/></linearGradient></defs></svg>