<svg xmlns="http://www.w3.org/2000/svg" width="262" height="231" fill="none"><g clip-path="url(#a)"><rect width="37.135" height="123.18" x=".121" y="107.82" fill="url(#b)" rx="6.34"/><path fill="url(#c)" fill-opacity=".3" fill-rule="evenodd" d="M202.1 444.489 566.207 80.382l-.64-.64L201.46 443.848l.64.641Zm-5.434 0L560.773 80.382l-.641-.64-364.106 364.106.64.641ZM555.338 80.382 191.232 444.49l-.641-.641L554.698 79.742l.64.64ZM185.797 444.49 549.904 80.382l-.641-.64-364.106 364.106.64.641ZM544.469 80.382 180.363 444.49l-.641-.641L543.829 79.742l.64.64ZM174.928 444.49 539.035 80.382l-.641-.64-364.106 364.106.64.641ZM533.6 80.382 169.494 444.49l-.641-.641L532.96 79.742l.64.64ZM164.059 444.49 528.166 80.382l-.64-.64-364.107 364.106.64.641ZM522.732 80.382 158.625 444.49l-.64-.641L522.091 79.742l.641.64ZM153.191 444.49 517.297 80.382l-.64-.64L152.55 443.848l.641.641ZM511.863 80.382 147.756 444.49l-.64-.641L511.222 79.742l.641.64ZM142.322 444.49 506.428 80.382l-.64-.64-364.107 364.106.641.641ZM500.994 80.382 136.887 444.49l-.64-.641L500.353 79.742l.641.64ZM131.453 444.49 495.559 80.382l-.64-.64-364.107 364.106.641.641ZM490.125 80.382 126.018 444.49l-.64-.641L489.485 79.742l.64.64ZM120.584 444.49 484.691 80.382l-.641-.64-364.106 364.106.64.641ZM479.256 80.382 115.15 444.49l-.641-.641L478.616 79.742l.64.64ZM109.715 444.49 473.822 80.382l-.641-.64-364.106 364.106.64.641ZM468.387 80.382 104.281 444.49l-.641-.641L467.747 79.742l.64.64ZM98.847 444.49 462.952 80.382l-.641-.64L98.206 443.848l.64.641ZM457.518 80.382 93.412 444.49l-.64-.641L456.877 79.742l.641.64ZM87.978 444.49 452.084 80.382l-.64-.64L87.337 443.848l.64.641ZM446.65 80.382 82.543 444.49l-.64-.641L446.009 79.742l.641.64ZM77.109 444.49 441.215 80.382l-.64-.64L76.468 443.848l.64.641ZM435.78 80.382 71.674 444.49l-.64-.641L435.14 79.742l.641.64ZM66.24 444.49 430.346 80.382l-.64-.64L65.599 443.848l.64.641ZM424.912 80.382 60.805 444.49l-.64-.641L424.27 79.742l.641.64ZM55.371 444.49 419.478 80.382l-.641-.64L54.731 443.848l.64.641ZM414.043 80.382 49.937 444.49l-.64-.641L413.402 79.742l.64.64ZM44.503 444.49 408.608 80.382l-.641-.64L43.862 443.848l.64.641Zm358.67-364.108L39.068 444.49l-.64-.641L402.533 79.742l.64.64ZM33.634 444.49 397.74 80.382l-.641-.64L32.993 443.848l.64.641Zm358.67-364.108L28.199 444.49l-.64-.641L391.664 79.742l.64.64ZM22.765 444.49 386.87 80.382l-.64-.64L22.124 443.848l.64.641ZM381.436 80.382 17.33 444.49l-.64-.641L380.796 79.742l.641.64ZM11.896 444.49 376.002 80.382l-.64-.64L11.255 443.848l.64.641ZM370.568 80.382 6.461 444.49l-.64-.641L369.927 79.742l.641.64ZM1.027 444.49 365.133 80.382l-.64-.64L.386 443.848l.64.641ZM359.699 80.382-4.408 444.49l-.64-.641L359.058 79.742l.641.64ZM-9.842 444.49 354.264 80.382l-.64-.64-364.107 364.106.64.641ZM348.83 80.382-15.277 444.49l-.64-.641L348.19 79.742l.64.64ZM-20.711 444.49 343.396 80.382l-.641-.64-364.106 364.106.64.641ZM337.961 80.382-26.145 444.49l-.64-.641L337.32 79.742l.64.64ZM-31.579 444.49 332.526 80.382l-.641-.64L-32.22 443.848l.64.641Zm358.67-364.108L-37.014 444.49l-.64-.641L326.451 79.742l.64.64ZM-42.448 444.49 321.657 80.382l-.641-.64L-43.09 443.848l.64.641Zm358.67-364.108L-47.883 444.49l-.64-.641L315.582 79.742l.64.64ZM-53.317 444.49 310.788 80.382l-.64-.64-364.107 364.106.64.641ZM305.354 80.382-58.752 444.49l-.64-.641L304.714 79.742l.641.64ZM-64.186 444.49 299.92 80.382l-.64-.64-364.107 364.106.64.641ZM294.486 80.382-69.621 444.49l-.64-.641L293.845 79.742l.641.64ZM-75.055 444.49 289.05 80.382l-.64-.64-364.107 364.106.64.641ZM283.617 80.382-80.49 444.49l-.64-.641L282.976 79.742l.641.64ZM-85.924 444.49 278.182 80.382l-.64-.64-364.107 364.106.64.641ZM272.748 80.382-91.359 444.49l-.64-.641L272.108 79.742l.64.64ZM-96.792 444.49 267.313 80.382l-.641-.64-364.106 364.106.64.641Zm358.67-364.108L-102.227 444.49l-.641-.641L261.239 79.742l.64.64Zm-369.54 364.108L256.445 80.382l-.641-.64-364.106 364.106.64.641ZM251.01 80.382-113.096 444.49l-.641-.641L250.37 79.742l.64.64ZM-118.531 444.49 245.576 80.382l-.641-.64-364.106 364.106.64.641ZM240.141 80.382-123.965 444.49l-.641-.641L239.501 79.742l.64.64ZM-129.4 444.49 234.707 80.382l-.64-.64-364.107 364.106.64.641ZM229.273 80.382-134.834 444.49l-.64-.641L228.632 79.742l.641.64ZM-140.268 444.49 223.838 80.382l-.64-.64-364.107 364.106.641.641ZM218.404 80.382-145.703 444.49l-.64-.641L217.763 79.742l.641.64ZM-151.137 444.49 212.969 80.382l-.64-.64-364.107 364.106.641.641ZM207.535 80.382-156.572 444.49l-.64-.641L206.894 79.742l.641.64ZM-162.006 444.49 202.1 80.382l-.64-.64-364.107 364.106.641.641ZM196.666 80.382-167.441 444.49l-.64-.641L196.026 79.742l.64.64ZM-172.875 444.49 191.232 80.382l-.641-.64-364.106 364.106.64.641ZM185.797 80.382-178.309 444.49l-.641-.641L185.157 79.742l.64.64ZM-183.744 444.49 180.363 80.382l-.641-.64-364.106 364.106.64.641ZM174.928 80.382-189.178 444.49l-.641-.641L174.288 79.742l.64.64ZM-194.613 444.49 169.494 80.382l-.641-.64-364.106 364.106.64.641ZM164.059 80.382-200.047 444.49l-.641-.641L163.419 79.742l.64.64ZM-205.482 444.49 158.625 80.382l-.64-.64-364.107 364.106.64.641ZM153.191 80.382-210.916 444.49l-.64-.641L152.55 79.742l.641.64ZM-216.35 444.49 147.756 80.382l-.64-.64-364.107 364.106.641.641ZM142.322 80.382-221.785 444.49l-.64-.641L141.681 79.742l.641.64ZM-227.219 444.49 136.887 80.382l-.64-.64-364.107 364.106.641.641ZM131.453 80.382-232.654 444.49l-.64-.641L130.812 79.742l.641.64ZM-238.088 444.49 126.018 80.382l-.64-.64-364.107 364.106.641.641ZM120.584 80.382-243.522 444.49l-.641-.641L119.944 79.742l.64.64ZM-248.957 444.49 115.15 80.382l-.641-.64-364.106 364.106.64.641ZM109.715 80.382-254.391 444.49l-.641-.641L109.075 79.742l.64.64ZM-259.826 444.49 104.281 80.382l-.641-.64-364.106 364.106.64.641ZM98.846 80.382-265.26 444.49l-.641-.641L98.206 79.742l.64.64ZM-270.695 444.49 93.412 80.382l-.64-.64-364.107 364.106.64.641ZM87.978 80.382-276.13 444.49l-.641-.641L87.337 79.742l.64.64ZM-281.563 444.49 82.543 80.382l-.64-.64-364.107 364.106.641.641ZM77.109 80.382-286.998 444.49l-.64-.641L76.468 79.742l.64.64ZM-292.432 444.49 71.674 80.382l-.64-.64-364.107 364.106.641.641ZM66.24 80.382-297.867 444.49l-.64-.641L65.599 79.742l.64.64ZM-303.301 444.49 60.805 80.382l-.64-.64-364.107 364.106.641.641ZM55.371 80.382-308.736 444.49l-.64-.641L54.73 79.742l.641.64ZM-314.17 444.49 49.937 80.382l-.64-.64-364.108 364.106.641.641ZM44.502 80.382-319.604 444.49l-.641-.641L43.862 79.742l.64.64ZM-325.039 444.49 39.068 80.382l-.64-.64-364.107 364.106.64.641ZM33.633 80.382-330.473 444.49l-.641-.641L32.993 79.742l.64.64ZM-335.908 444.49 28.199 80.382l-.64-.64-364.107 364.106.64.641ZM22.764 80.382-341.342 444.49l-.641-.641L22.124 79.742l.64.64ZM-346.777 444.49 17.33 80.382l-.64-.64-364.107 364.106.64.641ZM11.896 80.382-352.211 444.49l-.64-.641L11.255 79.742l.64.64ZM-357.645 444.49 6.461 80.382l-.64-.64-364.107 364.106.641.641ZM1.027 80.382-363.08 444.49l-.64-.641L.386 79.742l.64.64ZM-368.514 444.49-4.408 80.382l-.64-.64-364.107 364.106.641.641ZM-9.842 80.382-373.95 444.49l-.64-.641L-10.483 79.742l.64.64ZM-379.383 444.49-15.277 80.382l-.64-.64-364.107 364.106.641.641ZM-20.711 80.382-384.818 444.49l-.64-.641L-21.351 79.742l.64.64ZM-390.252 444.49-26.145 80.382l-.64-.64-364.107 364.106.64.641ZM-31.58 80.382-395.686 444.49l-.641-.641L-32.22 79.742l.64.64ZM-401.12 444.49-37.014 80.382l-.64-.64-364.107 364.106.64.641ZM-42.449 80.382-406.555 444.49l-.641-.641L-43.089 79.742l.64.64ZM-411.99 444.49-47.883 80.382l-.64-.64-364.107 364.106.64.641ZM-53.317 80.382-417.425 444.49l-.641-.641L-53.958 79.742l.64.64ZM-422.86 444.49-58.752 80.382l-.64-.64L-423.5 443.848l.64.641ZM-64.186 80.382-428.293 444.49l-.64-.641L-64.827 79.742l.64.64ZM-433.727 444.49-69.621 80.382l-.64-.64-364.107 364.106.641.641ZM-75.055 80.382-439.162 444.49l-.64-.641L-75.696 79.742l.64.64ZM-444.596 444.49-80.49 80.382l-.64-.64-364.107 364.106.641.641ZM-85.924 80.382-450.031 444.49l-.64-.641L-86.565 79.742l.64.64ZM-455.465 444.49-91.359 80.382l-.64-.64-364.107 364.106.641.641ZM-96.793 80.382-460.9 444.49l-.64-.641L-97.433 79.742l.64.64ZM-466.334 444.49l364.107-364.107-.641-.64-364.106 364.106.64.641Zm358.672-364.107L-471.768 444.49l-.641-.641 364.107-364.106.64.64ZM-477.203 444.49l364.107-364.107-.641-.64-364.106 364.106.64.641Zm358.672-364.107L-482.637 444.49l-.641-.641 364.107-364.106.64.64ZM-488.072 444.49l364.107-364.107-.641-.64-364.106 364.106.64.641ZM-129.4 80.382-493.506 444.49l-.641-.641L-130.04 79.742l.64.64ZM-498.941 444.49l364.107-364.107-.64-.64-364.107 364.106.64.641Zm358.673-364.107L-504.375 444.49l-.64-.641 364.106-364.106.641.64ZM-509.809 444.49l364.106-364.107-.64-.64-364.107 364.106.641.641Zm358.672-364.107L-515.244 444.49l-.64-.641 364.106-364.106.641.64ZM-520.678 444.49l364.106-364.107-.64-.64-364.107 364.106.641.641Zm358.672-364.107L-526.113 444.49l-.64-.641 364.106-364.106.641.64Z" clip-rule="evenodd" style="mix-blend-mode:plus-lighter"/></g><rect width="36.135" height="122.18" x=".621" y="108.32" stroke="url(#d)" stroke-opacity=".2" rx="5.84"/><g clip-path="url(#e)"><rect width="37.135" height="178.43" x="55.371" y="52.57" fill="url(#f)" rx="6.34"/><path fill="url(#g)" fill-opacity=".3" fill-rule="evenodd" d="M257.35 417.317 621.457 53.21l-.64-.64L256.71 416.676l.64.641Zm-5.434 0L616.023 53.21l-.641-.64-364.106 364.106.64.641ZM610.588 53.21 246.482 417.317l-.641-.641L609.948 52.57l.64.64ZM241.047 417.317 605.154 53.21l-.641-.64-364.106 364.106.64.641ZM599.719 53.21 235.613 417.317l-.641-.641L599.079 52.57l.64.64ZM230.178 417.317 594.285 53.21l-.641-.64-364.106 364.106.64.641ZM588.85 53.21 224.744 417.317l-.641-.641L588.21 52.57l.64.64ZM219.309 417.317 583.416 53.21l-.64-.64-364.107 364.106.64.641ZM577.982 53.21 213.875 417.317l-.64-.641L577.341 52.57l.641.64ZM208.441 417.317 572.547 53.21l-.64-.64L207.8 416.676l.641.641ZM567.113 53.21 203.006 417.317l-.64-.641L566.472 52.57l.641.64ZM197.572 417.317 561.678 53.21l-.64-.64-364.107 364.106.641.641ZM556.244 53.21 192.137 417.317l-.64-.641L555.603 52.57l.641.64ZM186.703 417.317 550.809 53.21l-.64-.64-364.107 364.106.641.641ZM545.375 53.21 181.268 417.317l-.64-.641L544.735 52.57l.64.64ZM175.834 417.317 539.941 53.21l-.641-.64-364.106 364.106.64.641ZM534.506 53.21 170.4 417.317l-.641-.641L533.866 52.57l.64.64ZM164.965 417.317 529.072 53.21l-.641-.64-364.106 364.106.64.641ZM523.637 53.21 159.531 417.317l-.641-.641L522.997 52.57l.64.64ZM154.096 417.317 518.203 53.21l-.641-.64-364.106 364.106.64.641ZM512.769 53.21 148.662 417.317l-.641-.641L512.128 52.57l.641.64ZM143.228 417.317 507.334 53.21l-.64-.64-364.107 364.106.641.641ZM501.9 53.21 137.793 417.317l-.64-.641L501.259 52.57l.641.64ZM132.359 417.317 496.465 53.21l-.64-.64-364.107 364.106.641.641ZM491.031 53.21 126.924 417.317l-.64-.641L490.39 52.57l.641.64ZM121.49 417.317 485.596 53.21l-.64-.64-364.107 364.106.641.641ZM480.162 53.21 116.055 417.317l-.64-.641L479.521 52.57l.641.64ZM110.621 417.317 474.728 53.21l-.641-.64L109.98 416.676l.641.641ZM469.293 53.21 105.187 417.317l-.641-.641L468.653 52.57l.64.64ZM99.753 417.317 463.858 53.21l-.641-.64L99.112 416.676l.64.641ZM458.423 53.21 94.318 417.317l-.64-.641L457.783 52.57l.64.64ZM88.884 417.317 452.99 53.21l-.641-.64L88.243 416.676l.64.641ZM447.554 53.21 83.449 417.317l-.64-.641L446.914 52.57l.64.64ZM78.015 417.317 442.12 53.21l-.64-.64L77.374 416.676l.64.641ZM436.686 53.21 72.58 417.317l-.64-.641L436.046 52.57l.641.64ZM67.145 417.317 431.252 53.21l-.64-.64L66.505 416.676l.64.641ZM425.818 53.21 61.711 417.317l-.64-.641L425.177 52.57l.641.64ZM56.277 417.317 420.383 53.21l-.64-.64L55.636 416.676l.64.641ZM414.949 53.21 50.842 417.317l-.64-.641L414.308 52.57l.641.64ZM45.408 417.317 409.514 53.21l-.64-.64L44.767 416.676l.64.641ZM404.08 53.21 39.973 417.317l-.64-.641L403.44 52.57l.64.64ZM34.539 417.317 398.646 53.21l-.641-.64L33.899 416.676l.64.641ZM393.211 53.21 29.105 417.317l-.64-.641L392.57 52.57l.64.64ZM23.671 417.317 387.776 53.21l-.641-.64L23.03 416.676l.64.641ZM382.341 53.21 18.236 417.317l-.64-.641L381.701 52.57l.64.64ZM12.802 417.317 376.907 53.21l-.641-.64L12.161 416.676l.64.641ZM371.472 53.21 7.367 417.317l-.64-.641L370.832 52.57l.64.64ZM1.933 417.317 366.038 53.21l-.64-.64L1.292 416.676l.64.641ZM360.604 53.21-3.502 417.317l-.64-.641L359.964 52.57l.641.64ZM-8.936 417.317 355.17 53.21l-.64-.64L-9.577 416.676l.64.641ZM349.736 53.21-14.371 417.317l-.64-.641L349.095 52.57l.641.64ZM-19.805 417.317 344.3 53.21l-.64-.64-364.107 364.106.64.641ZM338.867 53.21-25.24 417.317l-.64-.641L338.226 52.57l.641.64ZM-30.674 417.317 333.432 53.21l-.64-.64-364.107 364.106.64.641ZM327.998 53.21-36.109 417.317l-.64-.641L327.358 52.57l.64.64Zm-369.54 364.107L322.563 53.21l-.641-.64-364.106 364.106.64.641ZM317.128 53.21-46.977 417.317l-.64-.641L316.488 52.57l.64.64Zm-369.54 364.107L311.694 53.21l-.641-.64-364.106 364.106.64.641ZM306.26 53.21-57.846 417.317l-.64-.641L305.62 52.57l.64.64ZM-63.28 417.317 300.825 53.21l-.641-.64-364.106 364.106.64.641ZM295.39 53.21-68.715 417.317l-.64-.641L294.75 52.57l.64.64ZM-74.15 417.317 289.957 53.21l-.64-.64L-74.79 416.676l.64.641ZM284.523 53.21-79.584 417.317l-.64-.641L283.881 52.57l.641.64ZM-85.018 417.317 279.088 53.21l-.64-.64-364.107 364.106.64.641ZM273.654 53.21-90.453 417.317l-.64-.641L273.013 52.57l.641.64ZM-95.887 417.317 268.219 53.21l-.64-.64-364.107 364.106.64.641ZM262.785 53.21l-364.107 364.107-.64-.641L262.144 52.57l.641.64Zm-369.541 364.107L257.35 53.21l-.64-.64-364.107 364.106.641.641ZM251.916 53.21l-364.107 364.107-.64-.641L251.276 52.57l.64.64Zm-369.541 364.107L246.482 53.21l-.641-.64-364.106 364.106.64.641ZM241.047 53.21l-364.106 364.107-.641-.641L240.407 52.57l.64.64Zm-369.541 364.107L235.613 53.21l-.641-.64-364.106 364.106.64.641ZM230.178 53.21l-364.106 364.107-.641-.641L229.538 52.57l.64.64Zm-369.541 364.107L224.744 53.21l-.641-.64-364.106 364.106.64.641ZM219.309 53.21l-364.106 364.107-.641-.641L218.669 52.57l.64.64Zm-369.541 364.107L213.875 53.21l-.64-.64-364.107 364.106.64.641ZM208.441 53.21l-364.107 364.107-.64-.641L207.8 52.57l.641.64ZM-161.1 417.317 203.006 53.21l-.64-.64-364.107 364.106.641.641ZM197.572 53.21l-364.107 364.107-.64-.641L196.931 52.57l.641.64Zm-369.541 364.107L192.137 53.21l-.64-.64-364.107 364.106.641.641ZM186.703 53.21l-364.107 364.107-.64-.641L186.062 52.57l.641.64Zm-369.541 364.107L181.268 53.21l-.64-.64-364.107 364.106.641.641ZM175.834 53.21l-364.106 364.107-.641-.641L175.194 52.57l.64.64Zm-369.541 364.107L170.4 53.21l-.641-.64-364.106 364.106.64.641ZM164.965 53.21l-364.106 364.107-.641-.641L164.325 52.57l.64.64Zm-369.541 364.107L159.531 53.21l-.641-.64-364.106 364.106.64.641ZM154.096 53.21-210.01 417.317l-.641-.641L153.456 52.57l.64.64Zm-369.541 364.107L148.662 53.21l-.64-.64-364.107 364.106.64.641ZM143.228 53.21l-364.107 364.107-.641-.641L142.587 52.57l.641.64Zm-369.541 364.107L137.793 53.21l-.64-.64-364.107 364.106.641.641ZM132.359 53.21l-364.107 364.107-.64-.641L131.718 52.57l.641.64Zm-369.541 364.107L126.924 53.21l-.64-.64-364.107 364.106.641.641ZM121.49 53.21l-364.107 364.107-.64-.641L120.849 52.57l.641.64Zm-369.541 364.107L116.055 53.21l-.64-.64-364.107 364.106.641.641ZM110.621 53.21l-364.107 364.107-.64-.641L109.981 52.57l.64.64ZM-258.92 417.317 105.187 53.21l-.641-.64-364.107 364.106.641.641ZM99.752 53.21l-364.106 364.107-.641-.641L99.112 52.57l.64.64Zm-369.541 364.107L94.318 53.21l-.64-.64-364.107 364.106.64.641ZM88.883 53.21l-364.106 364.107-.641-.641L88.243 52.57l.64.64Zm-369.541 364.107L83.449 53.21l-.64-.64-364.107 364.106.64.641ZM78.014 53.21l-364.106 364.107-.641-.641L77.374 52.57l.64.64Zm-369.541 364.107L72.58 53.21l-.64-.64-364.107 364.106.64.641ZM67.146 53.21l-364.107 364.107-.64-.641L66.505 52.57l.64.64Zm-369.541 364.107L61.711 53.21l-.64-.64-364.107 364.106.641.641ZM56.277 53.21-307.83 417.317l-.64-.641L55.636 52.57l.64.64Zm-369.541 364.107L50.842 53.21l-.64-.64-364.107 364.106.641.641ZM45.408 53.21-318.7 417.317l-.64-.641L44.767 52.57l.64.64Zm-369.541 364.107L39.973 53.21l-.64-.64-364.107 364.106.641.641ZM34.539 53.21l-364.107 364.107-.64-.641L33.899 52.57l.64.64Zm-369.541 364.107L29.105 53.21l-.64-.64-364.107 364.106.64.641ZM23.67 53.21l-364.106 364.107-.641-.641L23.03 52.57l.64.64Zm-369.54 364.107L18.236 53.21l-.64-.64-364.107 364.106.64.641ZM12.801 53.21l-364.106 364.107-.641-.641L12.161 52.57l.64.64ZM-356.74 417.317 7.367 53.21l-.64-.64-364.107 364.106.64.641ZM1.932 53.21l-364.106 364.107-.641-.641L1.292 52.57l.64.64Zm-369.541 364.107L-3.502 53.21l-.64-.64-364.107 364.106.64.641ZM-8.936 53.21l-364.107 364.107-.64-.641L-9.577 52.57l.64.64Zm-369.541 364.107L-14.371 53.21l-.64-.64-364.107 364.106.641.641ZM-19.805 53.21l-364.107 364.107-.64-.641L-20.446 52.57l.64.64Zm-369.541 364.107L-25.24 53.21l-.64-.64-364.107 364.106.641.641ZM-30.674 53.21l-364.107 364.107-.64-.641L-31.315 52.57l.64.64Zm-369.541 364.107L-36.109 53.21l-.64-.64-364.107 364.106.641.641ZM-41.543 53.21-405.65 417.317l-.64-.641L-42.183 52.57l.64.64Zm-369.541 364.107L-46.977 53.21l-.64-.64-364.107 364.106.64.641ZM-52.412 53.21l-364.106 364.107-.641-.641L-53.052 52.57l.64.64Zm-369.541 364.107L-57.846 53.21l-.64-.64-364.107 364.106.64.641ZM-63.281 53.21l-364.106 364.107-.641-.641L-63.921 52.57l.64.64Zm-369.541 364.107L-68.715 53.21l-.64-.64-364.107 364.106.64.641ZM-74.149 53.21l-364.107 364.107-.641-.641L-74.79 52.57l.64.64Zm-369.542 364.107L-79.584 53.21l-.64-.64-364.107 364.106.64.641ZM-85.018 53.21l-364.107 364.107-.64-.641L-85.659 52.57l.64.64ZM-454.56 417.317-90.453 53.21l-.64-.64L-455.2 416.676l.641.641ZM-95.887 53.21l-364.107 364.107-.64-.641L-96.528 52.57l.64.64Zm-369.541 364.107L-101.322 53.21l-.64-.64-364.107 364.106.641.641ZM-106.756 53.21l-364.107 364.107-.64-.641L-107.397 52.57l.641.64Z" clip-rule="evenodd" style="mix-blend-mode:plus-lighter"/></g><rect width="36.135" height="177.43" x="55.871" y="53.07" stroke="url(#h)" stroke-opacity=".2" rx="5.84"/><g clip-path="url(#i)"><rect width="40.758" height="221" x="110.621" y="10" fill="url(#j)" rx="7.246"/><path fill="url(#k)" fill-opacity=".7" fill-rule="evenodd" d="M314.413 373.841 678.52 9.735l-.641-.64L313.772 373.2l.641.64Zm-5.434 0L673.085 9.735l-.64-.64L308.338 373.2l.641.64ZM667.651 9.735 303.544 373.84l-.64-.64L667.01 9.094l.641.64ZM298.11 373.84 662.216 9.735l-.64-.64L297.469 373.2l.641.64ZM656.782 9.735 292.675 373.84l-.64-.64L656.141 9.094l.641.64ZM287.241 373.84 651.347 9.735l-.64-.64L286.6 373.2l.641.64ZM645.913 9.735 281.806 373.84l-.64-.64L645.273 9.094l.64.64ZM276.372 373.84 640.479 9.735l-.641-.64L275.731 373.2l.641.64ZM635.044 9.735 270.938 373.84l-.641-.64L634.404 9.094l.64.64ZM265.503 373.84 629.61 9.735l-.641-.64L264.863 373.2l.64.64ZM624.175 9.735 260.069 373.84l-.641-.64L623.535 9.094l.64.64ZM254.634 373.84 618.741 9.735l-.641-.64L253.994 373.2l.64.64ZM613.306 9.735 249.2 373.84l-.641-.64L612.666 9.094l.64.64ZM243.765 373.84 607.872 9.735l-.64-.64L243.125 373.2l.64.64ZM602.438 9.735 238.331 373.84l-.64-.64L601.797 9.094l.641.64ZM232.897 373.84 597.003 9.735l-.64-.64L232.256 373.2l.641.64ZM591.569 9.735 227.462 373.84l-.64-.64L590.928 9.094l.641.64ZM222.028 373.84 586.134 9.735l-.64-.64L221.387 373.2l.641.64ZM580.7 9.735 216.593 373.84l-.64-.64L580.059 9.094l.641.64ZM211.159 373.84 575.265 9.735l-.64-.64L210.518 373.2l.641.64ZM569.831 9.735 205.724 373.84l-.64-.64L569.191 9.094l.64.64ZM200.29 373.84 564.397 9.735l-.641-.64L199.65 373.2l.64.64ZM558.962 9.735 194.856 373.84l-.641-.64L558.322 9.094l.64.64ZM189.421 373.84 553.528 9.735l-.641-.64L188.781 373.2l.64.64ZM548.093 9.735 183.987 373.84l-.641-.64L547.453 9.094l.64.64ZM178.552 373.84 542.659 9.735l-.641-.64L177.912 373.2l.64.64ZM537.224 9.735 173.118 373.84l-.641-.64L536.584 9.094l.64.64ZM167.683 373.84 531.79 9.735l-.64-.64L167.043 373.2l.64.64ZM526.356 9.735 162.249 373.84l-.64-.64L525.715 9.094l.641.64ZM156.815 373.84 520.921 9.735l-.64-.64L156.174 373.2l.641.64ZM515.487 9.735 151.38 373.84l-.64-.64L514.846 9.094l.641.64ZM145.946 373.84 510.052 9.735l-.64-.64L145.305 373.2l.641.64ZM504.618 9.735 140.511 373.84l-.64-.64L503.977 9.094l.641.64ZM135.077 373.84 499.183 9.735l-.64-.64L134.436 373.2l.641.64ZM493.749 9.735 129.642 373.84l-.64-.64L493.109 9.094l.64.64ZM124.208 373.84 488.315 9.735l-.641-.64L123.568 373.2l.64.64ZM482.88 9.735 118.774 373.84l-.641-.64L482.24 9.094l.64.64ZM113.339 373.84 477.446 9.735l-.641-.64L112.699 373.2l.64.64ZM472.011 9.735 107.905 373.84l-.641-.64L471.371 9.094l.64.64ZM102.47 373.84 466.577 9.735l-.641-.64L101.83 373.2l.64.64ZM461.142 9.735 97.036 373.84l-.64-.64L460.501 9.094l.64.64ZM91.602 373.84 455.707 9.735l-.64-.64L90.961 373.2l.64.64ZM450.274 9.735 86.167 373.84l-.64-.64L449.633 9.094l.641.64ZM80.733 373.84 444.839 9.735l-.64-.64L80.092 373.2l.64.64ZM439.405 9.735 75.298 373.84l-.64-.64L438.764 9.094l.641.64ZM69.864 373.84 433.97 9.735l-.64-.64L69.223 373.2l.64.64ZM428.536 9.735 64.429 373.84l-.64-.64L427.895 9.094l.641.64ZM58.995 373.84 423.101 9.735l-.64-.64L58.354 373.2l.641.64ZM417.667 9.735 53.561 373.84l-.641-.64L417.027 9.094l.64.64ZM48.127 373.84 412.232 9.735l-.641-.64L47.486 373.2l.64.64ZM406.797 9.735 42.692 373.84l-.64-.64L406.157 9.094l.64.64ZM37.258 373.84 401.363 9.735l-.641-.64L36.617 373.2l.64.64ZM395.928 9.735 31.823 373.84l-.64-.64L395.288 9.094l.64.64ZM26.389 373.84 390.494 9.735l-.641-.64L25.748 373.2l.64.64ZM385.06 9.735 20.954 373.84l-.64-.64L384.42 9.094l.641.64ZM15.52 373.84 379.625 9.735l-.64-.64L14.879 373.2l.64.64ZM374.192 9.735 10.085 373.84l-.64-.64L373.55 9.094l.641.64ZM4.651 373.84 368.757 9.735l-.64-.64L4.01 373.2l.64.64ZM363.323 9.735-.784 373.84l-.64-.64L362.682 9.094l.641.64ZM-6.218 373.84 357.888 9.735l-.64-.64L-6.859 373.2l.64.64ZM352.454 9.735-11.653 373.84l-.64-.64L351.814 9.094l.64.64ZM-17.087 373.84 347.02 9.735l-.641-.64L-17.728 373.2l.64.64ZM341.585 9.735-22.521 373.84l-.64-.64L340.944 9.094l.64.64ZM-27.955 373.84 336.15 9.735l-.641-.64L-28.596 373.2l.64.64ZM330.715 9.735-33.39 373.84l-.64-.64L330.075 9.094l.64.64ZM-38.824 373.84 325.281 9.735l-.641-.64L-39.465 373.2l.64.64ZM319.846 9.735-44.259 373.84l-.64-.64L319.206 9.094l.64.64ZM-49.693 373.84 314.412 9.735l-.64-.64L-50.334 373.2l.64.64ZM308.978 9.735-55.128 373.84l-.64-.64L308.337 9.094l.641.64ZM-60.562 373.84 303.544 9.735l-.64-.64L-61.203 373.2l.64.64ZM298.11 9.735-65.997 373.84l-.64-.64L297.469 9.094l.641.64ZM-71.431 373.84 292.675 9.735l-.64-.64L-72.072 373.2l.64.64ZM287.24 9.735-76.866 373.84l-.64-.64L286.6 9.094l.641.64ZM-82.3 373.84 281.806 9.735l-.64-.64L-82.941 373.2l.64.64ZM276.372 9.735-87.734 373.84l-.641-.64L275.732 9.094l.64.64ZM-93.169 373.84 270.938 9.735l-.641-.64L-93.81 373.2l.641.64ZM265.503 9.735-98.603 373.84l-.64-.64L264.862 9.094l.64.64ZM-104.038 373.84 260.069 9.735l-.641-.64L-104.678 373.2l.64.64ZM254.634 9.735-109.472 373.84l-.641-.64L253.994 9.094l.64.64ZM-114.907 373.84 249.2 9.735l-.641-.64L-115.547 373.2l.64.64ZM243.765 9.735-120.341 373.84l-.641-.64L243.125 9.094l.64.64ZM-125.776 373.84 238.331 9.735l-.64-.64L-126.416 373.2l.64.64ZM232.897 9.735-131.21 373.84l-.641-.64L232.256 9.094l.641.64ZM-136.644 373.84 227.462 9.735l-.64-.64L-137.285 373.2l.641.64ZM222.028 9.735-142.079 373.84l-.64-.64L221.387 9.094l.641.64ZM-147.513 373.84 216.593 9.735l-.64-.64L-148.154 373.2l.641.64ZM211.159 9.735-152.948 373.84l-.64-.64L210.518 9.094l.641.64ZM-158.382 373.84 205.724 9.735l-.64-.64L-159.023 373.2l.641.64ZM200.29 9.735-163.817 373.84l-.64-.64L199.65 9.094l.64.64ZM-169.251 373.84 194.856 9.735l-.641-.64L-169.891 373.2l.64.64ZM189.421 9.735-174.685 373.84l-.641-.64L188.781 9.094l.64.64ZM-180.12 373.84 183.987 9.735l-.641-.64L-180.76 373.2l.64.64ZM178.552 9.735-185.554 373.84l-.641-.64L177.912 9.094l.64.64ZM-190.989 373.84 173.118 9.735l-.641-.64L-191.629 373.2l.64.64ZM167.683 9.735-196.423 373.84l-.641-.64L167.043 9.094l.64.64ZM-201.858 373.84 162.249 9.735l-.64-.64L-202.498 373.2l.64.64ZM156.815 9.735-207.292 373.84l-.64-.64L156.174 9.094l.641.64ZM-212.726 373.84 151.38 9.735l-.64-.64L-213.367 373.2l.641.64ZM145.946 9.735-218.161 373.84l-.64-.64L145.305 9.094l.641.64ZM-223.595 373.84 140.511 9.735l-.64-.64L-224.236 373.2l.641.64ZM135.077 9.735-229.03 373.84l-.64-.64L134.436 9.094l.641.64ZM-234.464 373.84 129.643 9.735l-.641-.64L-235.105 373.2l.641.64ZM124.208 9.735-239.898 373.84l-.641-.64L123.568 9.094l.64.64ZM-245.333 373.84 118.774 9.735l-.641-.64L-245.973 373.2l.64.64ZM113.339 9.735-250.767 373.84l-.641-.64L112.699 9.094l.64.64ZM-256.202 373.84 107.905 9.735l-.641-.64L-256.842 373.2l.64.64ZM102.47 9.735-261.636 373.84l-.641-.64L101.83 9.094l.64.64ZM-267.071 373.84 97.036 9.735l-.64-.64L-267.712 373.2l.64.64ZM91.602 9.735-272.506 373.84l-.641-.64L90.961 9.094l.64.64ZM-277.94 373.84 86.167 9.735l-.64-.64L-278.58 373.2l.641.64ZM80.733 9.735-283.374 373.84l-.64-.64L80.092 9.094l.64.64ZM-288.808 373.84 75.298 9.735l-.64-.64L-289.45 373.2l.641.64ZM69.864 9.735-294.243 373.84l-.64-.64L69.223 9.094l.64.64ZM-299.677 373.84 64.429 9.735l-.64-.64L-300.318 373.2l.641.64ZM58.995 9.735-305.112 373.84l-.64-.64L58.354 9.094l.641.64ZM-310.546 373.84 53.561 9.735l-.64-.64L-311.188 373.2l.641.64ZM48.126 9.735-315.98 373.84l-.64-.64L47.486 9.094l.64.64ZM-321.415 373.84 42.692 9.735l-.64-.64L-322.056 373.2l.64.64ZM37.257 9.735-326.849 373.84l-.641-.64L36.617 9.094l.64.64ZM-332.284 373.84 31.823 9.735l-.64-.64L-332.925 373.2l.64.64ZM26.388 9.735-337.718 373.84l-.641-.64L25.748 9.094l.64.64ZM-343.153 373.84 20.954 9.735l-.64-.64L-343.794 373.2l.64.64ZM15.52 9.735-348.588 373.84l-.64-.64L14.879 9.094l.64.64ZM-354.022 373.84 10.085 9.735l-.64-.64L-354.662 373.2l.64.64ZM4.651 9.735-359.456 373.84l-.64-.64L4.01 9.094l.64.64ZM-364.89 373.84-.784 9.735l-.64-.64L-365.531 373.2l.641.64ZM-6.218 9.735-370.325 373.84l-.64-.64L-6.859 9.094l.64.64ZM-375.76 373.84-11.653 9.735l-.64-.64L-376.4 373.2l.641.64ZM-17.087 9.735-381.194 373.84l-.64-.64L-17.728 9.094l.641.64ZM-386.628 373.84-22.521 9.735l-.64-.64L-387.269 373.2l.64.64ZM-27.956 9.735-392.062 373.84l-.641-.64L-28.596 9.094l.64.64ZM-397.497 373.84-33.39 9.735l-.64-.64L-398.138 373.2l.64.64ZM-38.825 9.735-402.93 373.84l-.641-.64L-39.465 9.094l.64.64ZM-408.366 373.84-44.259 9.735l-.64-.64L-409.007 373.2l.64.64ZM-49.694 9.735-413.8 373.84l-.641-.64L-50.334 9.094l.64.64Z" clip-rule="evenodd" style="mix-blend-mode:plus-lighter"/></g><rect width="39.758" height="220" x="111.121" y="10.5" stroke="url(#l)" stroke-opacity=".2" rx="6.746"/><g clip-path="url(#m)"><rect width="37.135" height="178.43" x="169.492" y="52.57" fill="url(#n)" rx="6.34"/><path fill="url(#o)" fill-opacity=".3" fill-rule="evenodd" d="M371.472 417.317 735.578 53.21l-.64-.64-364.107 364.106.641.641Zm-5.435 0L730.144 53.21l-.641-.64-364.106 364.106.64.641ZM724.709 53.21 360.603 417.317l-.641-.641L724.069 52.57l.64.64ZM355.168 417.317 719.275 53.21l-.641-.64-364.106 364.106.64.641ZM713.84 53.21 349.734 417.317l-.641-.641L713.2 52.57l.64.64ZM344.299 417.317 708.406 53.21l-.64-.64-364.107 364.106.64.641ZM702.972 53.21 338.865 417.317l-.64-.641L702.331 52.57l.641.64ZM333.431 417.317 697.537 53.21l-.64-.64L332.79 416.676l.641.641ZM692.103 53.21 327.996 417.317l-.64-.641L691.462 52.57l.641.64ZM322.562 417.317 686.668 53.21l-.64-.64-364.107 364.106.641.641ZM681.234 53.21 317.127 417.317l-.64-.641L680.593 52.57l.641.64ZM311.693 417.317 675.799 53.21l-.64-.64-364.107 364.106.641.641ZM670.365 53.21 306.258 417.317l-.64-.641L669.725 52.57l.64.64ZM300.824 417.317 664.931 53.21l-.641-.64-364.106 364.106.64.641ZM659.496 53.21 295.39 417.317l-.641-.641L658.856 52.57l.64.64ZM289.955 417.317 654.062 53.21l-.641-.64-364.106 364.106.64.641ZM648.627 53.21 284.521 417.317l-.641-.641L647.987 52.57l.64.64ZM279.086 417.317 643.193 53.21l-.641-.64-364.106 364.106.64.641ZM637.758 53.21 273.652 417.317l-.641-.641L637.118 52.57l.64.64ZM268.217 417.317 632.324 53.21l-.64-.64-364.107 364.106.64.641ZM626.89 53.21 262.783 417.317l-.64-.641L626.249 52.57l.641.64ZM257.349 417.317 621.455 53.21l-.64-.64-364.107 364.106.641.641ZM616.021 53.21 251.914 417.317l-.64-.641L615.38 52.57l.641.64ZM246.48 417.317 610.586 53.21l-.64-.64-364.107 364.106.641.641ZM605.152 53.21 241.045 417.317l-.64-.641L604.511 52.57l.641.64ZM235.611 417.317 599.717 53.21l-.64-.64L234.97 416.676l.641.641ZM594.283 53.21 230.176 417.317l-.64-.641L593.643 52.57l.64.64ZM224.742 417.317 588.849 53.21l-.641-.64-364.106 364.106.64.641ZM583.414 53.21 219.308 417.317l-.641-.641L582.774 52.57l.64.64ZM213.873 417.317 577.98 53.21l-.641-.64-364.106 364.106.64.641ZM572.545 53.21 208.439 417.317l-.641-.641L571.905 52.57l.64.64ZM203.004 417.317 567.111 53.21l-.641-.64-364.106 364.106.64.641ZM561.676 53.21 197.57 417.317l-.641-.641L561.036 52.57l.64.64Zm-369.54 364.107L556.242 53.21l-.64-.64-364.107 364.106.641.641ZM550.808 53.21 186.701 417.317l-.64-.641L550.167 52.57l.641.64ZM181.267 417.317 545.373 53.21l-.64-.64-364.107 364.106.641.641ZM539.939 53.21 175.832 417.317l-.64-.641L539.298 52.57l.641.64ZM170.398 417.317 534.504 53.21l-.64-.64-364.107 364.106.641.641ZM529.07 53.21 164.963 417.317l-.64-.641L528.429 52.57l.641.64ZM159.529 417.317 523.636 53.21l-.641-.64-364.107 364.106.641.641ZM518.201 53.21 154.094 417.317l-.64-.641L517.561 52.57l.64.64ZM148.66 417.317 512.767 53.21l-.641-.64L148.02 416.676l.64.641ZM507.332 53.21 143.226 417.317l-.641-.641L506.692 52.57l.64.64ZM137.791 417.317 501.898 53.21l-.641-.64-364.106 364.106.64.641ZM496.463 53.21 132.357 417.317l-.641-.641L495.823 52.57l.64.64ZM126.922 417.317 491.029 53.21l-.641-.64-364.106 364.106.64.641ZM485.595 53.21 121.488 417.317l-.641-.641L484.954 52.57l.641.64ZM116.054 417.317 480.16 53.21l-.64-.64-364.107 364.106.641.641ZM474.726 53.21 110.619 417.317l-.64-.641L474.085 52.57l.641.64ZM105.185 417.317 469.291 53.21l-.64-.64-364.107 364.106.641.641ZM463.857 53.21 99.75 417.317l-.64-.641L463.216 52.57l.641.64ZM94.316 417.317 458.422 53.21l-.64-.64L93.675 416.676l.64.641ZM452.988 53.21 88.881 417.317l-.64-.641L452.348 52.57l.64.64ZM83.447 417.317 447.554 53.21l-.641-.64L82.807 416.676l.64.641ZM442.119 53.21 78.013 417.317l-.64-.641L441.478 52.57l.64.64ZM72.579 417.317 436.684 53.21l-.641-.64L71.938 416.676l.64.641ZM431.25 53.21 67.144 417.317l-.64-.641L430.61 52.57l.64.64ZM61.71 417.317 425.815 53.21l-.641-.64L61.069 416.676l.64.641ZM420.38 53.21 56.275 417.317l-.64-.641L419.74 52.57l.64.64ZM50.841 417.317 414.946 53.21l-.64-.64L50.2 416.676l.64.641ZM409.512 53.21 45.406 417.317l-.64-.641L408.871 52.57l.641.64ZM39.972 417.317 404.078 53.21l-.64-.64L39.331 416.676l.64.641ZM398.644 53.21 34.537 417.317l-.64-.641L398.003 52.57l.641.64ZM29.103 417.317 393.209 53.21l-.64-.64L28.462 416.676l.64.641ZM387.775 53.21 23.668 417.317l-.64-.641L387.134 52.57l.641.64ZM18.234 417.317 382.34 53.21l-.64-.64L17.593 416.676l.64.641ZM376.906 53.21 12.799 417.317l-.64-.641L376.266 52.57l.64.64ZM7.365 417.317 371.472 53.21l-.641-.64L6.724 416.676l.641.641ZM366.037 53.21 1.931 417.317l-.64-.641L365.396 52.57l.64.64ZM-3.503 417.317 360.602 53.21l-.641-.64L-4.144 416.676l.64.641ZM355.167 53.21-8.938 417.317l-.64-.641L354.527 52.57l.64.64Zm-369.54 364.107L349.733 53.21l-.641-.64-364.106 364.106.64.641ZM344.298 53.21-19.807 417.317l-.64-.641L343.658 52.57l.64.64Zm-369.54 364.107L338.864 53.21l-.64-.64-364.107 364.106.64.641ZM333.43 53.21-30.676 417.317l-.64-.641L332.79 52.57l.641.64ZM-36.11 417.317 327.996 53.21l-.64-.64-364.107 364.106.64.641ZM322.562 53.21-41.545 417.317l-.64-.641L321.92 52.57l.641.64ZM-46.979 417.317 317.127 53.21l-.64-.64L-47.62 416.676l.64.641ZM311.693 53.21-52.414 417.317l-.64-.641L311.052 52.57l.641.64ZM-57.848 417.317 306.258 53.21l-.64-.64-364.107 364.106.64.641ZM300.824 53.21-63.283 417.317l-.64-.641L300.184 52.57l.64.64ZM-68.717 417.317 295.39 53.21l-.641-.64-364.106 364.106.64.641ZM289.955 53.21-74.151 417.317l-.64-.641L289.314 52.57l.64.64Zm-369.54 364.107L284.52 53.21l-.641-.64-364.106 364.106.64.641ZM279.085 53.21-85.02 417.317l-.64-.641L278.445 52.57l.64.64Zm-369.54 364.107L273.651 53.21l-.641-.64-364.106 364.106.64.641ZM268.216 53.21-95.889 417.317l-.64-.641L267.577 52.57l.64.64Zm-369.541 364.107L262.783 53.21l-.64-.64-364.107 364.106.64.641ZM257.349 53.21l-364.107 364.107-.64-.641L256.708 52.57l.641.64Zm-369.541 364.107L251.914 53.21l-.64-.64-364.107 364.106.641.641ZM246.48 53.21l-364.107 364.107-.64-.641L245.839 52.57l.641.64Zm-369.541 364.107L241.045 53.21l-.64-.64-364.107 364.106.641.641ZM235.611 53.21l-364.107 364.107-.64-.641L234.97 52.57l.641.64ZM-133.93 417.317 230.176 53.21l-.64-.64-364.107 364.106.641.641ZM224.742 53.21l-364.106 364.107-.641-.641L224.102 52.57l.64.64Zm-369.541 364.107L219.308 53.21l-.641-.64-364.106 364.106.64.641ZM213.873 53.21l-364.106 364.107-.641-.641L213.233 52.57l.64.64Zm-369.541 364.107L208.439 53.21l-.641-.64-364.106 364.106.64.641ZM203.004 53.21l-364.106 364.107-.641-.641L202.364 52.57l.64.64Zm-369.541 364.107L197.57 53.21l-.641-.64-364.106 364.106.64.641ZM192.136 53.21l-364.107 364.107-.641-.641L191.495 52.57l.641.64Zm-369.542 364.107L186.701 53.21l-.64-.64-364.107 364.106.64.641ZM181.267 53.21-182.84 417.317l-.64-.641L180.626 52.57l.641.64Zm-369.541 364.107L175.832 53.21l-.64-.64-364.107 364.106.641.641ZM170.398 53.21l-364.107 364.107-.64-.641L169.757 52.57l.641.64Zm-369.541 364.107L164.963 53.21l-.64-.64-364.107 364.106.641.641ZM159.529 53.21l-364.107 364.107-.64-.641L158.888 52.57l.641.64Zm-369.541 364.107L154.095 53.21l-.641-.64-364.107 364.106.641.641ZM148.66 53.21l-364.107 364.107-.64-.641L148.02 52.57l.64.64Zm-369.541 364.107L143.226 53.21l-.641-.64-364.106 364.106.64.641ZM137.791 53.21l-364.106 364.107-.641-.641L137.151 52.57l.64.64ZM-231.75 417.317 132.357 53.21l-.641-.64-364.106 364.106.64.641ZM126.922 53.21l-364.106 364.107-.641-.641L126.282 52.57l.64.64Zm-369.541 364.107L121.488 53.21l-.641-.64-364.106 364.106.64.641ZM116.054 53.21l-364.107 364.107-.641-.641L115.413 52.57l.641.64Zm-369.541 364.107L110.619 53.21l-.64-.64-364.107 364.106.641.641ZM105.185 53.21l-364.107 364.107-.64-.641L104.544 52.57l.641.64Zm-369.541 364.107L99.75 53.21l-.64-.64-364.107 364.106.641.641ZM94.316 53.21l-364.107 364.107-.64-.641L93.675 52.57l.64.64Zm-369.541 364.107L88.881 53.21l-.64-.64-364.107 364.106.641.641ZM83.447 53.21-280.66 417.317l-.64-.641L82.806 52.57l.641.64Zm-369.541 364.107L78.013 53.21l-.64-.64-364.107 364.106.64.641ZM72.578 53.21l-364.106 364.107-.641-.641L71.938 52.57l.64.64Zm-369.541 364.107L67.144 53.21l-.64-.64-364.107 364.106.64.641ZM61.709 53.21l-364.106 364.107-.641-.641L61.069 52.57l.64.64Zm-369.541 364.107L56.275 53.21l-.64-.64-364.107 364.106.64.641ZM50.841 53.21l-364.107 364.107-.641-.641L50.2 52.57l.64.64Zm-369.542 364.107L45.406 53.21l-.64-.64-364.107 364.106.64.641ZM39.972 53.21l-364.107 364.107-.641-.641L39.331 52.57l.64.64ZM-329.57 417.317 34.537 53.21l-.64-.64-364.107 364.106.641.641ZM29.103 53.21l-364.107 364.107-.64-.641L28.462 52.57l.64.64Zm-369.541 364.107L23.668 53.21l-.64-.64-364.107 364.106.641.641ZM18.234 53.21l-364.107 364.107-.64-.641L17.593 52.57l.64.64Zm-369.541 364.107L12.799 53.21l-.64-.64-364.107 364.106.641.641ZM7.365 53.21l-364.107 364.107-.64-.641L6.725 52.57l.64.64Z" clip-rule="evenodd" style="mix-blend-mode:plus-lighter"/></g><rect width="36.135" height="177.43" x="169.992" y="53.07" stroke="url(#p)" stroke-opacity=".2" rx="5.84"/><g clip-path="url(#q)"><rect width="37.135" height="123.18" x="224.742" y="107.82" fill="url(#r)" rx="6.34"/><path fill="url(#s)" fill-opacity=".3" fill-rule="evenodd" d="M426.722 444.489 790.828 80.382l-.64-.64-364.107 364.106.641.641Zm-5.435 0L785.394 80.382l-.641-.64-364.106 364.106.64.641ZM779.959 80.382 415.853 444.49l-.641-.641L779.319 79.742l.64.64ZM410.418 444.49 774.525 80.382l-.641-.64-364.106 364.106.64.641ZM769.09 80.382 404.984 444.49l-.641-.641L768.45 79.742l.64.64ZM399.549 444.49 763.656 80.382l-.64-.64-364.107 364.106.64.641ZM758.222 80.382 394.115 444.49l-.64-.641L757.581 79.742l.641.64ZM388.681 444.49 752.787 80.382l-.64-.64L388.04 443.848l.641.641ZM747.353 80.382 383.246 444.49l-.64-.641L746.712 79.742l.641.64ZM377.812 444.49 741.918 80.382l-.64-.64-364.107 364.106.641.641ZM736.484 80.382 372.377 444.49l-.64-.641L735.843 79.742l.641.64ZM366.943 444.49 731.049 80.382l-.64-.64-364.107 364.106.641.641ZM725.615 80.382 361.508 444.49l-.64-.641L724.975 79.742l.64.64ZM356.074 444.49 720.181 80.382l-.641-.64-364.106 364.106.64.641ZM714.746 80.382 350.64 444.49l-.641-.641L714.106 79.742l.64.64ZM345.205 444.49 709.312 80.382l-.641-.64-364.106 364.106.64.641ZM703.877 80.382 339.771 444.49l-.641-.641L703.237 79.742l.64.64ZM334.336 444.49 698.443 80.382l-.641-.64-364.106 364.106.64.641ZM693.008 80.382 328.902 444.49l-.641-.641L692.368 79.742l.64.64ZM323.467 444.49 687.574 80.382l-.64-.64-364.107 364.106.64.641ZM682.14 80.382 318.033 444.49l-.64-.641L681.499 79.742l.641.64ZM312.599 444.49 676.705 80.382l-.64-.64-364.107 364.106.641.641ZM671.271 80.382 307.164 444.49l-.64-.641L670.63 79.742l.641.64ZM301.73 444.49 665.836 80.382l-.64-.64-364.107 364.106.641.641ZM660.402 80.382 296.295 444.49l-.64-.641L659.761 79.742l.641.64ZM290.861 444.49 654.967 80.382l-.64-.64L290.22 443.848l.641.641ZM649.533 80.382 285.426 444.49l-.64-.641L648.893 79.742l.64.64ZM279.992 444.49 644.099 80.382l-.641-.64-364.106 364.106.64.641ZM638.664 80.382 274.558 444.49l-.641-.641L638.024 79.742l.64.64ZM269.123 444.49 633.23 80.382l-.641-.64-364.106 364.106.64.641ZM627.795 80.382 263.689 444.49l-.641-.641L627.155 79.742l.64.64ZM258.254 444.49 622.361 80.382l-.641-.64-364.106 364.106.64.641ZM616.926 80.382 252.82 444.49l-.641-.641L616.286 79.742l.64.64ZM247.386 444.49 611.492 80.382l-.64-.64-364.107 364.106.641.641ZM606.058 80.382 241.951 444.49l-.64-.641L605.417 79.742l.641.64ZM236.517 444.49 600.623 80.382l-.64-.64-364.107 364.106.641.641ZM595.189 80.382 231.082 444.49l-.64-.641L594.548 79.742l.641.64ZM225.648 444.49 589.754 80.382l-.64-.64-364.107 364.106.641.641ZM584.32 80.382 220.213 444.49l-.64-.641L583.679 79.742l.641.64ZM214.779 444.49 578.886 80.382l-.641-.64-364.107 364.106.641.641ZM573.451 80.382 209.344 444.49l-.64-.641L572.811 79.742l.64.64ZM203.91 444.49 568.017 80.382l-.641-.64L203.27 443.848l.64.641ZM562.582 80.382 198.476 444.49l-.641-.641L561.942 79.742l.64.64ZM193.041 444.49 557.148 80.382l-.641-.64-364.106 364.106.64.641ZM551.713 80.382 187.607 444.49l-.641-.641L551.073 79.742l.64.64ZM182.172 444.49 546.279 80.382l-.641-.64-364.106 364.106.64.641ZM540.845 80.382 176.738 444.49l-.641-.641L540.204 79.742l.641.64ZM171.304 444.49 535.41 80.382l-.64-.64-364.107 364.106.641.641ZM529.976 80.382 165.869 444.49l-.64-.641L529.335 79.742l.641.64ZM160.435 444.49 524.541 80.382l-.64-.64-364.107 364.106.641.641ZM519.107 80.382 155 444.49l-.64-.641L518.466 79.742l.641.64ZM149.566 444.49 513.672 80.382l-.64-.64-364.107 364.106.641.641ZM508.238 80.382 144.131 444.49l-.64-.641L507.598 79.742l.64.64ZM138.697 444.49 502.804 80.382l-.641-.64-364.106 364.106.64.641ZM497.369 80.382 133.263 444.49l-.641-.641L496.729 79.742l.64.64ZM127.828 444.49 491.935 80.382l-.641-.64-364.106 364.106.64.641ZM486.5 80.382 122.394 444.49l-.641-.641L485.86 79.742l.64.64ZM116.959 444.49 481.066 80.382l-.641-.64-364.106 364.106.64.641ZM475.631 80.382 111.525 444.49l-.641-.641L474.991 79.742l.64.64ZM106.09 444.49 470.197 80.382l-.64-.64L105.45 443.848l.64.641ZM464.763 80.382 100.656 444.49l-.64-.641L464.122 79.742l.641.64ZM95.222 444.49 459.328 80.382l-.64-.64L94.581 443.848l.64.641ZM453.894 80.382 89.787 444.49l-.64-.641L453.253 79.742l.641.64ZM84.353 444.49 448.459 80.382l-.64-.64L83.712 443.848l.64.641ZM443.025 80.382 78.918 444.49l-.64-.641L442.384 79.742l.641.64ZM73.484 444.49 437.59 80.382l-.64-.64L72.843 443.848l.64.641ZM432.156 80.382 68.049 444.49l-.64-.641L431.516 79.742l.64.64ZM62.615 444.49 426.722 80.382l-.641-.64L61.974 443.848l.641.641ZM421.287 80.382 57.181 444.49l-.64-.641L420.646 79.742l.64.64ZM51.747 444.49 415.852 80.382l-.641-.64L51.106 443.848l.64.641Zm358.67-364.108L46.312 444.49l-.64-.641L409.777 79.742l.64.64ZM40.878 444.49 404.983 80.382l-.641-.64L40.237 443.848l.64.641Zm358.67-364.108L35.443 444.49l-.64-.641L398.908 79.742l.64.64ZM30.009 444.49 394.114 80.382l-.64-.64L29.368 443.848l.64.641ZM388.68 80.382 24.574 444.49l-.64-.641L388.04 79.742l.641.64ZM19.14 444.49 383.246 80.382l-.64-.64L18.499 443.848l.64.641ZM377.812 80.382 13.705 444.49l-.64-.641L377.17 79.742l.641.64ZM8.271 444.49 372.377 80.382l-.64-.64L7.63 443.848l.64.641ZM366.943 80.382 2.836 444.49l-.64-.641L366.302 79.742l.641.64ZM-2.598 444.49 361.508 80.382l-.64-.64L-3.239 443.848l.64.641ZM356.074 80.382-8.033 444.49l-.64-.641L355.434 79.742l.64.64ZM-13.467 444.49 350.64 80.382l-.641-.64-364.106 364.106.64.641ZM345.205 80.382-18.901 444.49l-.64-.641L344.564 79.742l.64.64ZM-24.335 444.49 339.77 80.382l-.641-.64-364.106 364.106.64.641Zm358.67-364.108L-29.77 444.49l-.64-.641L333.695 79.742l.64.64ZM-35.204 444.49 328.901 80.382l-.641-.64-364.106 364.106.64.641Zm358.67-364.108L-40.639 444.49l-.64-.641L322.827 79.742l.64.64ZM-46.073 444.49 318.032 80.382l-.64-.64-364.107 364.106.64.641ZM312.599 80.382-51.508 444.49l-.64-.641L311.958 79.742l.641.64ZM-56.942 444.49 307.164 80.382l-.64-.64-364.107 364.106.64.641ZM301.73 80.382-62.377 444.49l-.64-.641L301.089 79.742l.641.64ZM-67.811 444.49 296.295 80.382l-.64-.64-364.107 364.106.64.641ZM290.86 80.382-73.246 444.49l-.64-.641L290.22 79.742l.641.64ZM-78.68 444.49 285.426 80.382l-.64-.64-364.107 364.106.641.641ZM279.992 80.382-84.115 444.49l-.64-.641L279.352 79.742l.64.64ZM-89.548 444.49 274.557 80.382l-.641-.64L-90.19 443.848l.64.641Zm358.67-364.108L-94.983 444.49l-.64-.641L268.482 79.742l.64.64Zm-369.54 364.108L263.689 80.382l-.641-.64-364.106 364.106.64.641ZM258.254 80.382-105.852 444.49l-.641-.641L257.614 79.742l.64.64ZM-111.287 444.49 252.82 80.382l-.641-.64-364.106 364.106.64.641ZM247.386 80.382-116.721 444.49l-.641-.641L246.745 79.742l.641.64ZM-122.156 444.49 241.951 80.382l-.64-.64-364.107 364.106.64.641ZM236.517 80.382-127.59 444.49l-.64-.641L235.876 79.742l.641.64ZM-133.024 444.49 231.082 80.382l-.64-.64-364.107 364.106.641.641ZM225.648 80.382-138.459 444.49l-.64-.641L225.007 79.742l.641.64ZM-143.893 444.49 220.213 80.382l-.64-.64-364.107 364.106.641.641ZM214.779 80.382-149.328 444.49l-.64-.641L214.138 79.742l.641.64ZM-154.762 444.49 209.345 80.382l-.641-.64-364.107 364.106.641.641ZM203.91 80.382-160.197 444.49l-.64-.641L203.27 79.742l.64.64ZM-165.631 444.49 198.476 80.382l-.641-.64-364.106 364.106.64.641ZM193.041 80.382-171.065 444.49l-.641-.641L192.401 79.742l.64.64ZM-176.5 444.49 187.607 80.382l-.641-.64-364.106 364.106.64.641ZM182.172 80.382-181.934 444.49l-.641-.641L181.532 79.742l.64.64ZM-187.369 444.49 176.738 80.382l-.641-.64-364.106 364.106.64.641ZM171.304 80.382-192.803 444.49l-.641-.641L170.663 79.742l.641.64ZM-198.237 444.49 165.869 80.382l-.64-.64-364.107 364.106.641.641ZM160.435 80.382-203.672 444.49l-.64-.641L159.794 79.742l.641.64ZM-209.106 444.49 155 80.382l-.64-.64-364.107 364.106.641.641ZM149.566 80.382-214.541 444.49l-.64-.641L148.925 79.742l.641.64ZM-219.975 444.49 144.131 80.382l-.64-.64-364.107 364.106.641.641ZM138.697 80.382-225.41 444.49l-.64-.641L138.057 79.742l.64.64ZM-230.844 444.49 133.263 80.382l-.641-.64-364.106 364.106.64.641ZM127.828 80.382-236.278 444.49l-.641-.641L127.188 79.742l.64.64ZM-241.713 444.49 122.394 80.382l-.641-.64-364.106 364.106.64.641ZM116.959 80.382-247.147 444.49l-.641-.641L116.319 79.742l.64.64ZM-252.582 444.49 111.525 80.382l-.641-.64-364.106 364.106.64.641ZM106.09 80.382-258.016 444.49l-.641-.641L105.45 79.742l.64.64ZM-263.451 444.49 100.656 80.382l-.64-.64-364.107 364.106.64.641ZM95.222 80.382-268.885 444.49l-.641-.641L94.581 79.742l.64.64ZM-274.32 444.49 89.787 80.382l-.64-.64-364.107 364.106.641.641ZM84.353 80.382-279.754 444.49l-.64-.641L83.712 79.742l.64.64ZM-285.188 444.49 78.918 80.382l-.64-.64-364.107 364.106.641.641ZM73.484 80.382-290.623 444.49l-.64-.641L72.843 79.742l.64.64ZM-296.057 444.49 68.049 80.382l-.64-.64-364.107 364.106.641.641ZM62.615 80.382-301.492 444.49l-.64-.641L61.975 79.742l.64.64Z" clip-rule="evenodd" style="mix-blend-mode:plus-lighter"/></g><rect width="36.135" height="122.18" x="225.242" y="108.32" stroke="url(#t)" stroke-opacity=".2" rx="5.84"/><path fill="#668AFF" d="M131 20c5.523 0 10-4.477 10-10s-4.477-10-10-10-10 4.477-10 10 4.477 10 10 10Z" opacity=".5"/><path fill="#fff" d="M131 14a4 4 0 1 0 0-8 4 4 0 0 0 0 8Z"/><defs><linearGradient id="b" x1="18.689" x2="18.689" y1="107.82" y2="231" gradientUnits="userSpaceOnUse"><stop stop-color="#00094C"/><stop offset="1" stop-color="#00094C" stop-opacity="0"/></linearGradient><linearGradient id="c" x1="271.842" x2="-123.247" y1="-211.453" y2="421.205" gradientUnits="userSpaceOnUse"><stop stop-color="#fff"/><stop offset=".686" stop-color="#fff" stop-opacity="0"/></linearGradient><linearGradient id="d" x1="18.689" x2="18.689" y1="107.82" y2="231" gradientUnits="userSpaceOnUse"><stop stop-color="#6182FE"/><stop offset="1" stop-color="#6182FE" stop-opacity="0"/></linearGradient><linearGradient id="f" x1="73.939" x2="73.939" y1="52.57" y2="231" gradientUnits="userSpaceOnUse"><stop stop-color="#00094C"/><stop offset="1" stop-color="#00094C" stop-opacity="0"/></linearGradient><linearGradient id="g" x1="327.092" x2="-67.997" y1="-238.625" y2="394.033" gradientUnits="userSpaceOnUse"><stop stop-color="#fff"/><stop offset=".686" stop-color="#fff" stop-opacity="0"/></linearGradient><linearGradient id="h" x1="73.939" x2="73.939" y1="52.57" y2="231" gradientUnits="userSpaceOnUse"><stop stop-color="#6182FE"/><stop offset="1" stop-color="#6182FE" stop-opacity="0"/></linearGradient><linearGradient id="j" x1="131" x2="131" y1="10" y2="231" gradientUnits="userSpaceOnUse"><stop stop-color="#1A4BFF"/><stop offset="1" stop-color="#00094C" stop-opacity="0"/></linearGradient><linearGradient id="k" x1="384.155" x2="-10.934" y1="-282.1" y2="350.557" gradientUnits="userSpaceOnUse"><stop stop-color="#fff"/><stop offset=".686" stop-color="#fff" stop-opacity="0"/></linearGradient><linearGradient id="l" x1="131" x2="131" y1="10" y2="231" gradientUnits="userSpaceOnUse"><stop stop-color="#fff"/><stop offset="1" stop-color="#fff" stop-opacity="0"/></linearGradient><linearGradient id="n" x1="188.06" x2="188.06" y1="52.57" y2="231" gradientUnits="userSpaceOnUse"><stop stop-color="#00094C"/><stop offset="1" stop-color="#00094C" stop-opacity="0"/></linearGradient><linearGradient id="o" x1="441.213" x2="46.124" y1="-238.625" y2="394.033" gradientUnits="userSpaceOnUse"><stop stop-color="#fff"/><stop offset=".686" stop-color="#fff" stop-opacity="0"/></linearGradient><linearGradient id="p" x1="188.06" x2="188.06" y1="52.57" y2="231" gradientUnits="userSpaceOnUse"><stop stop-color="#6182FE"/><stop offset="1" stop-color="#6182FE" stop-opacity="0"/></linearGradient><linearGradient id="r" x1="243.31" x2="243.31" y1="107.82" y2="231" gradientUnits="userSpaceOnUse"><stop stop-color="#00094C"/><stop offset="1" stop-color="#00094C" stop-opacity="0"/></linearGradient><linearGradient id="s" x1="496.463" x2="101.374" y1="-211.453" y2="421.205" gradientUnits="userSpaceOnUse"><stop stop-color="#fff"/><stop offset=".686" stop-color="#fff" stop-opacity="0"/></linearGradient><linearGradient id="t" x1="243.31" x2="243.31" y1="107.82" y2="231" gradientUnits="userSpaceOnUse"><stop stop-color="#6182FE"/><stop offset="1" stop-color="#6182FE" stop-opacity="0"/></linearGradient><clipPath id="a"><rect width="37.135" height="123.18" x=".121" y="107.82" fill="#fff" rx="6.34"/></clipPath><clipPath id="e"><rect width="37.135" height="178.43" x="55.371" y="52.57" fill="#fff" rx="6.34"/></clipPath><clipPath id="i"><rect width="40.758" height="221" x="110.621" y="10" fill="#fff" rx="7.246"/></clipPath><clipPath id="m"><rect width="37.135" height="178.43" x="169.492" y="52.57" fill="#fff" rx="6.34"/></clipPath><clipPath id="q"><rect width="37.135" height="123.18" x="224.742" y="107.82" fill="#fff" rx="6.34"/></clipPath></defs></svg>