<svg xmlns="http://www.w3.org/2000/svg" width="20" height="21" fill="none"><path fill="#3363FF" d="M3.204 3.704a2.403 2.403 0 0 0 0 3.398l1.323 1.323a.631.631 0 0 1 .031-.033l3.333-3.334a.632.632 0 0 1 .034-.03L6.602 3.703a2.403 2.403 0 0 0-3.398 0zm5.603 2.205a.636.636 0 0 1-.032.033L5.442 9.276a.64.64 0 0 1-.034.03l7.99 7.99a2.403 2.403 0 0 0 3.398-3.398l-7.99-7.99zm4.61-3.486a.402.402 0 0 1 .75 0l.358.913c.04.104.123.186.227.228l.91.36c.34.134.34.617 0 .752l-.91.36a.403.403 0 0 0-.227.228l-.359.912a.402.402 0 0 1-.75 0l-.358-.912a.403.403 0 0 0-.227-.228l-.91-.36a.405.405 0 0 1 0-.753l.91-.36a.403.403 0 0 0 .227-.227l.359-.913zm3.223 5.685a.402.402 0 0 1 .749 0l.13.333a.409.409 0 0 0 .228.228l.331.131c.34.135.34.618 0 .752l-.331.132a.403.403 0 0 0-.227.227l-.131.333a.402.402 0 0 1-.75 0l-.13-.333a.404.404 0 0 0-.227-.227l-.332-.132a.405.405 0 0 1 0-.752l.332-.131a.404.404 0 0 0 .227-.228l.13-.333zM4.278 13.256a.402.402 0 0 1 .75 0l.13.333c.04.104.123.187.227.228l.331.131c.34.135.34.618 0 .752l-.331.132a.404.404 0 0 0-.227.227l-.13.333a.402.402 0 0 1-.75 0l-.131-.332a.404.404 0 0 0-.227-.228l-.332-.132a.405.405 0 0 1 0-.752l.332-.131a.404.404 0 0 0 .227-.228l.13-.333z"/></svg>