<svg xmlns="http://www.w3.org/2000/svg" width="508" height="289" fill="none"><path fill="url(#a)" d="M166.447 122.25H507.5v115.125H.875c0-7.308 3.48-14.179 9.371-18.504l111.821-82.081a75.002 75.002 0 0 1 44.38-14.54z"/><path stroke="url(#b)" stroke-width=".75" d="M166.447 122.25H507.5v115.125H.875c0-7.308 3.48-14.179 9.371-18.504l111.821-82.081a75.002 75.002 0 0 1 44.38-14.54z"/><path fill="url(#c)" d="M0 0h506v289H0z" transform="matrix(-1 0 0 1 507 0)"/><defs><linearGradient id="a" x1="272.75" x2="272.75" y1="122.25" y2="257.625" gradientUnits="userSpaceOnUse"><stop offset=".263" stop-color="#00031A"/><stop offset=".772" stop-color="#00020F"/></linearGradient><linearGradient id="b" x1="309.875" x2="309.875" y1="237" y2="122.25" gradientUnits="userSpaceOnUse"><stop stop-color="#000A4D" stop-opacity="0"/><stop offset="1" stop-color="#171D45"/></linearGradient><linearGradient id="c" x1="253" x2="253" y1="-5.419" y2="318.192" gradientUnits="userSpaceOnUse"><stop offset=".4" stop-color="#00020F" stop-opacity="0"/><stop offset="1" stop-color="#00020F"/></linearGradient></defs></svg>